<svg xmlns="http://www.w3.org/2000/svg" xmlns:xlink="http://www.w3.org/1999/xlink" viewBox="0 0 800 600" width="800" height="600" preserveAspectRatio="xMidYMid meet" style="width: 100%; height: 100%; transform: translate3d(0px, 0px, 0px); content-visibility: visible;"><defs><clipPath id="__lottie_element_2"><rect width="800" height="600" x="0" y="0"></rect></clipPath></defs><g clip-path="url(#__lottie_element_2)"><g transform="matrix(0.614799976348877,0,0,0.614799976348877,400.816162109375,277.2154846191406)" opacity="1" style="display: block;"><g opacity="1" transform="matrix(1,0,0,1,0,0)"><g opacity="1" transform="matrix(1,0,0,1,0,0)"><g opacity="1" transform="matrix(1,0,0,1,0,0)"><path fill="#FFFFFF" fill-opacity="1" d=" M324.0249938964844,-139.02200317382812 C324.0249938964844,-139.02200317382812 -202.0489959716797,-137.04299926757812 -202.0489959716797,-137.04299926757812 C-202.0489959716797,-137.04299926757812 -204.02499389648438,314.0220031738281 -204.02499389648438,314.0220031738281 C-204.02499389648438,314.0220031738281 323.3659973144531,312.7030029296875 323.3659973144531,312.7030029296875 C323.3659973144531,312.7030029296875 324.0249938964844,-139.02200317382812 324.0249938964844,-139.02200317382812z"></path></g><g opacity="1" transform="matrix(1,0,0,1,0,0)"><path fill="#222433" fill-opacity="1" d=" M-204.02499389648438,316 C-205.11599731445312,316 -206,315.114990234375 -206,314.0220031738281 C-206,314.0190124511719 -206,314.0159912109375 -206,314.01300048828125 C-206,314.01300048828125 -204.02499389648438,-137.052001953125 -204.02499389648438,-137.052001953125 C-204.02000427246094,-138.13800048828125 -203.14199829101562,-139.01800537109375 -202.0570068359375,-139.02200317382812 C-202.0570068359375,-139.02200317382812 324.01800537109375,-141 324.01800537109375,-141 C325.1090087890625,-141.00399780273438 325.9960021972656,-140.1219940185547 326,-139.0290069580078 C326,-139.02699279785156 326,-139.0240020751953 326,-139.02200317382812 C326,-139.02200317382812 325.3420104980469,312.7030029296875 325.3420104980469,312.7030029296875 C325.3420104980469,313.79400634765625 324.4599914550781,314.6780090332031 323.3710021972656,314.6809997558594 C323.3710021972656,314.6809997558594 -204.02000427246094,316 -204.02000427246094,316 C-204.02000427246094,316 -204.02499389648438,316 -204.02499389648438,316z M-200.08299255371094,-135.07200622558594 C-200.08299255371094,-135.07200622558594 -202.04100036621094,312.0360107421875 -202.04100036621094,312.0360107421875 C-202.04100036621094,312.0360107421875 321.3909912109375,310.72900390625 321.3909912109375,310.72900390625 C321.3909912109375,310.72900390625 322.04400634765625,-137.03900146484375 322.04400634765625,-137.03900146484375 C322.04400634765625,-137.03900146484375 -200.08299255371094,-135.07200622558594 -200.08299255371094,-135.07200622558594z"></path></g></g><g opacity="1" transform="matrix(1,0,0,1,0,0)"><path fill="#222433" fill-opacity="1" d=" M304.7560119628906,-93.94999694824219 C304.7560119628906,-93.94999694824219 304.7560119628906,-93.94999694824219 304.7560119628906,-93.94999694824219 C304.7560119628906,-93.94999694824219 -202.0489959716797,-94.17900085449219 -202.0489959716797,-94.17900085449219 C-203.13999938964844,-94.17900085449219 -204.02499389648438,-95.06400299072266 -204.02499389648438,-96.15699768066406 C-204.02499389648438,-97.25 -203.13999938964844,-98.13600158691406 -202.0489959716797,-98.13600158691406 C-202.0489959716797,-98.13600158691406 -202.0489959716797,-98.13600158691406 -202.0489959716797,-98.13600158691406 C-202.0489959716797,-98.13600158691406 304.7560119628906,-97.90699768066406 304.7560119628906,-97.90699768066406 C305.84698486328125,-97.90699768066406 306.7309875488281,-97.02100372314453 306.7309875488281,-95.9280014038086 C306.7309875488281,-94.83499908447266 305.84698486328125,-93.94999694824219 304.7560119628906,-93.94999694824219z"></path></g><g opacity="1" transform="matrix(1,0,0,1,0,0)"><path fill="#222433" fill-opacity="1" d=" M264,-104.6989974975586 C264,-104.6989974975586 244.51100158691406,-104.6989974975586 244.51100158691406,-104.6989974975586 C243.4199981689453,-104.6989974975586 242.53500366210938,-105.58499908447266 242.53500366210938,-106.6780014038086 C242.53500366210938,-106.6780014038086 242.53500366210938,-126.1969985961914 242.53500366210938,-126.1969985961914 C242.53500366210938,-127.29000091552734 243.4199981689453,-128.17599487304688 244.51100158691406,-128.17599487304688 C244.51100158691406,-128.17599487304688 264,-128.17599487304688 264,-128.17599487304688 C265.09100341796875,-128.17599487304688 265.9750061035156,-127.29000091552734 265.9750061035156,-126.1969985961914 C265.9750061035156,-126.1969985961914 265.9750061035156,-106.6780014038086 265.9750061035156,-106.6780014038086 C265.9750061035156,-105.58499908447266 265.09100341796875,-104.6989974975586 264,-104.6989974975586z M246.48599243164062,-108.65599822998047 C246.48599243164062,-108.65599822998047 262.02398681640625,-108.65599822998047 262.02398681640625,-108.65599822998047 C262.02398681640625,-108.65599822998047 262.02398681640625,-124.21900177001953 262.02398681640625,-124.21900177001953 C262.02398681640625,-124.21900177001953 246.48599243164062,-124.21900177001953 246.48599243164062,-124.21900177001953 C246.48599243164062,-124.21900177001953 246.48599243164062,-108.65599822998047 246.48599243164062,-108.65599822998047z"></path></g><g opacity="1" transform="matrix(1,0,0,1,0,0)"><path fill="#222433" fill-opacity="1" d=" M237.99200439453125,-104.6989974975586 C237.99200439453125,-104.6989974975586 218.5030059814453,-104.6989974975586 218.5030059814453,-104.6989974975586 C217.41200256347656,-104.6989974975586 216.5279998779297,-105.58499908447266 216.5279998779297,-106.6780014038086 C216.5279998779297,-107.77100372314453 217.41200256347656,-108.65599822998047 218.5030059814453,-108.65599822998047 C218.5030059814453,-108.65599822998047 237.99200439453125,-108.65599822998047 237.99200439453125,-108.65599822998047 C239.08299255371094,-108.65599822998047 239.9669952392578,-107.77100372314453 239.9669952392578,-106.6780014038086 C239.9669952392578,-105.58499908447266 239.08299255371094,-104.6989974975586 237.99200439453125,-104.6989974975586z"></path></g><g opacity="1" transform="matrix(1,0,0,1,0,0)"><path fill="#222433" fill-opacity="1" d=" M270.51800537109375,-104.6989974975586 C269.427001953125,-104.697998046875 268.5419921875,-105.58399963378906 268.5419921875,-106.677001953125 C268.5419921875,-107.2020034790039 268.75,-107.70600128173828 269.1210021972656,-108.0770034790039 C269.1210021972656,-108.0770034790039 288.6099853515625,-127.59700012207031 288.6099853515625,-127.59700012207031 C289.3810119628906,-128.3699951171875 290.63299560546875,-128.3699951171875 291.40399169921875,-127.59700012207031 C292.17498779296875,-126.8239974975586 292.17498779296875,-125.5719985961914 291.40399169921875,-124.79900360107422 C291.40399169921875,-124.79900360107422 291.40399169921875,-124.79900360107422 291.40399169921875,-124.79900360107422 C291.40399169921875,-124.79900360107422 271.91400146484375,-105.27899932861328 271.91400146484375,-105.27899932861328 C271.54400634765625,-104.90699768066406 271.0419921875,-104.697998046875 270.51800537109375,-104.6989974975586z"></path></g><g opacity="1" transform="matrix(1,0,0,1,0,0)"><path fill="#222433" fill-opacity="1" d=" M290.0069885253906,-104.6989974975586 C289.4830017089844,-104.697998046875 288.9800109863281,-104.90699768066406 288.6099853515625,-105.27899932861328 C288.6099853515625,-105.27899932861328 269.1210021972656,-124.79900360107422 269.1210021972656,-124.79900360107422 C268.3500061035156,-125.5719985961914 268.3500061035156,-126.8239974975586 269.1210021972656,-127.59700012207031 C269.8919982910156,-128.3699951171875 271.14300537109375,-128.3699951171875 271.91400146484375,-127.59700012207031 C271.91400146484375,-127.59700012207031 271.91400146484375,-127.59700012207031 271.91400146484375,-127.59700012207031 C271.91400146484375,-127.59700012207031 291.40399169921875,-108.0770034790039 291.40399169921875,-108.0770034790039 C292.1759948730469,-107.30500030517578 292.17498779296875,-106.052001953125 291.40399169921875,-105.27899932861328 C291.0329895019531,-104.90799713134766 290.531005859375,-104.6989974975586 290.0069885253906,-104.6989974975586z"></path></g><g opacity="1" transform="matrix(1,0,0,1,0,0)"><path fill="#222433" fill-opacity="1" d=" M323.9809875488281,313.78900146484375 C323.9809875488281,313.78900146484375 304.7560119628906,313.78900146484375 304.7560119628906,313.78900146484375 C303.6659851074219,313.78900146484375 303.6659851074219,-138.9250030517578 304.7560119628906,-138.9250030517578 C304.7560119628906,-138.9250030517578 323.9809875488281,-138.9250030517578 323.9809875488281,-138.9250030517578 C325.0719909667969,-138.9250030517578 325.9570007324219,-138.03900146484375 325.9570007324219,-136.9459991455078 C325.9570007324219,-136.9459991455078 325.9570007324219,311.80999755859375 325.9570007324219,311.80999755859375 C325.9570007324219,312.90301513671875 325.0719909667969,313.78900146484375 323.9809875488281,313.78900146484375z"></path></g></g></g><g transform="matrix(0.5891935229301453,-0.1755848079919815,0.1755848079919815,0.5891935229301453,378.6124572753906,339.09930419921875)" opacity="1" style="display: block;"><g opacity="1" transform="matrix(0,-1,1,0,392.68896484375,685.1409912109375)"><g opacity="1" transform="matrix(0.8502311706542969,-0.5264095664024353,0.5264095664024353,0.8502311706542969,3.7156982421875,305.6300048828125)"><path fill="#82B1FF" fill-opacity="1" d=" M561.802978515625,129.8520050048828 C561.802978515625,129.8520050048828 565.3679809570312,136.55299377441406 565.3679809570312,136.55299377441406 C566.9970092773438,139.61399841308594 565.8369750976562,143.41600036621094 562.7760009765625,145.0449981689453 C561.9140014648438,145.50399780273438 560.9559936523438,145.7550048828125 559.9810180664062,145.7790069580078 C559.9810180664062,145.7790069580078 538.9329833984375,146.31500244140625 538.9329833984375,146.31500244140625 C538.9329833984375,146.31500244140625 551.1389770507812,129.15899658203125 551.1389770507812,129.15899658203125 C553.14697265625,126.33200073242188 557.0659790039062,125.66799926757812 559.8930053710938,127.6760025024414 C560.6909790039062,128.2429962158203 561.344970703125,128.98800659179688 561.802978515625,129.8520050048828z"></path></g><g opacity="1" transform="matrix(0.9991925954818726,-0.04017726331949234,0.04017726331949234,0.9991925954818726,-5.44927978515625,21.7703857421875)"><path fill="#82B1FF" fill-opacity="1" d=" M555.4010009765625,169.17999267578125 C555.4010009765625,169.17999267578125 548.698974609375,172.74600219726562 548.698974609375,172.74600219726562 C545.6400146484375,174.3780059814453 541.8369750976562,173.2209930419922 540.2050170898438,170.16200256347656 C539.7440185546875,169.2989959716797 539.4920043945312,168.33999633789062 539.468017578125,167.36199951171875 C539.468017578125,167.36199951171875 538.9329833984375,146.31500244140625 538.9329833984375,146.31500244140625 C538.9329833984375,146.31500244140625 556.094970703125,158.51699829101562 556.094970703125,158.51699829101562 C558.9210205078125,160.531005859375 559.5789794921875,164.45599365234375 557.5640258789062,167.28199768066406 C557,168.07400512695312 556.260009765625,168.72300720214844 555.4010009765625,169.17999267578125z"></path></g></g></g><g transform="matrix(0.614799976348877,0,0,0.614799976348877,361.4268798828125,277.2154846191406)" opacity="1" style="display: block;"><g opacity="1" transform="matrix(1,0,0,1,0,0)"><path fill="#82B1FF" fill-opacity="1" d=" M246,-184 C246,-184 519,-184 519,-184 C460.4100036621094,-184 438.510986328125,-245.5780029296875 407.6300048828125,-245.9969940185547 C376.7489929199219,-246.41600036621094 364.6470031738281,-201.7449951171875 332.1579895019531,-211.84500122070312 C285.2550048828125,-226.39199829101562 266.4840087890625,-189.2779998779297 246,-184z"></path></g></g><g style="display: block;" transform="matrix(1.159999966621399,0,0,1.159999966621399,400.816162109375,277.17950439453125)" opacity="1"><g opacity="1" transform="matrix(1,0,0,1,0,0)"><path stroke-linecap="round" stroke-linejoin="miter" fill-opacity="0" stroke-miterlimit="4" stroke="#222433" stroke-opacity="1" stroke-width="2px" d="M0 0"></path></g></g><g style="display: block;" transform="matrix(1.159999966621399,0,0,1.159999966621399,400.816162109375,277.17950439453125)" opacity="1"><g opacity="1" transform="matrix(1,0,0,1,0,0)"><path stroke-linecap="round" stroke-linejoin="miter" fill-opacity="0" stroke-miterlimit="4" stroke="#222433" stroke-opacity="1" stroke-width="2px" d="M0 0"></path></g></g><g style="display: block;" transform="matrix(1.159999966621399,0,0,1.159999966621399,400.816162109375,277.17950439453125)" opacity="1"><g opacity="1" transform="matrix(1,0,0,1,0,0)"><path stroke-linecap="round" stroke-linejoin="miter" fill-opacity="0" stroke-miterlimit="4" stroke="#222433" stroke-opacity="1" stroke-width="2px" d="M0 0"></path></g></g><g style="display: block;" transform="matrix(1.159999966621399,0,0,1.159999966621399,400.816162109375,277.17950439453125)" opacity="1"><g opacity="1" transform="matrix(1,0,0,1,0,0)"><path stroke-linecap="round" stroke-linejoin="miter" fill-opacity="0" stroke-miterlimit="4" stroke="#222433" stroke-opacity="1" stroke-width="2px" d="M0 0"></path></g></g><g style="display: block;" transform="matrix(1.159999966621399,0,0,1.159999966621399,400.816162109375,277.17950439453125)" opacity="1"><g opacity="1" transform="matrix(1,0,0,1,0,0)"><path stroke-linecap="round" stroke-linejoin="miter" fill-opacity="0" stroke-miterlimit="4" stroke="#222433" stroke-opacity="1" stroke-width="2px" d="M0 0"></path></g></g><g transform="matrix(1.159999966621399,0,0,1.159999966621399,395.0161437988281,280.0794982910156)" opacity="1" style="display: block;"><g opacity="1" transform="matrix(1,0,0,1,0,0)"><path stroke-linecap="round" stroke-linejoin="miter" fill-opacity="0" stroke-miterlimit="4" stroke="#5A38FD" stroke-opacity="1" stroke-width="7px" d=" M119.375,90.125 C113.5,95.125 105.5,99.375 99.75,99.375 C67.45700073242188,99.375 75.95999908447266,21.202999114990234 22.312000274658203,16.70199966430664"></path></g></g><g transform="matrix(1.159999966621399,0,0,1.159999966621399,400.8161315917969,277.17950439453125)" opacity="1" style="display: none;"><g opacity="1" transform="matrix(1,0,0,1,48,52)"><path fill="#FFFFFF" fill-opacity="1" d=" M73.5,-54 C73.5,-54 73.5,54 73.5,54 C73.5,54 -73.5,54 -73.5,54 C-73.5,54 -73.5,-54 -73.5,-54 C-73.5,-54 73.5,-54 73.5,-54z"></path><path stroke-linecap="butt" stroke-linejoin="miter" fill-opacity="0" stroke-miterlimit="4" stroke="#82B1FF" stroke-opacity="1" stroke-width="1" d=" M73.5,-54 C73.5,-54 73.5,54 73.5,54 C73.5,54 -73.5,54 -73.5,54 C-73.5,54 -73.5,-54 -73.5,-54 C-73.5,-54 73.5,-54 73.5,-54z"></path></g></g><g style="display: none;" transform="matrix(1.159999966621399,0,0,1.159999966621399,400.8161315917969,277.17950439453125)" opacity="1"><g opacity="1" transform="matrix(1,0,0,1,0,0)"><path stroke-linecap="butt" stroke-linejoin="miter" fill-opacity="0" stroke-miterlimit="4" stroke="#5A38FD" stroke-opacity="1" stroke-width="3px" d=" M-25,-8.406000137329102 C-25,-8.406000137329102 -24.937999725341797,4.75 -24.937999725341797,4.75"></path></g><g opacity="1" transform="matrix(1,0,0,1,0,0)"><path stroke-linecap="butt" stroke-linejoin="miter" fill-opacity="0" stroke-miterlimit="4" stroke="#5A38FD" stroke-opacity="1" stroke-width="3px" d=" M-31.25,-2.125 C-31.25,-2.125 -18.687999725341797,-2 -18.687999725341797,-2"></path></g></g><g style="display: none;" transform="matrix(1.159999966621399,0,0,1.159999966621399,568.8186645507812,277.17950439453125)" opacity="1"><g opacity="1" transform="matrix(1,0,0,1,0,0)"><path stroke-linecap="butt" stroke-linejoin="miter" fill-opacity="0" stroke-miterlimit="4" stroke="#5A38FD" stroke-opacity="1" stroke-width="3px" d=" M-25,-8.406000137329102 C-25,-8.406000137329102 -24.937999725341797,4.75 -24.937999725341797,4.75"></path></g><g opacity="1" transform="matrix(1,0,0,1,0,0)"><path stroke-linecap="butt" stroke-linejoin="miter" fill-opacity="0" stroke-miterlimit="4" stroke="#5A38FD" stroke-opacity="1" stroke-width="3px" d=" M-31.25,-2.125 C-31.25,-2.125 -18.687999725341797,-2 -18.687999725341797,-2"></path></g></g><g style="display: none;" transform="matrix(1.159999966621399,0,0,1.159999966621399,400.8161315917969,401.6332702636719)" opacity="1"><g opacity="1" transform="matrix(1,0,0,1,0,0)"><path stroke-linecap="butt" stroke-linejoin="miter" fill-opacity="0" stroke-miterlimit="4" stroke="#5A38FD" stroke-opacity="1" stroke-width="3px" d=" M-25,-8.406000137329102 C-25,-8.406000137329102 -24.937999725341797,4.75 -24.937999725341797,4.75"></path></g><g opacity="1" transform="matrix(1,0,0,1,0,0)"><path stroke-linecap="butt" stroke-linejoin="miter" fill-opacity="0" stroke-miterlimit="4" stroke="#5A38FD" stroke-opacity="1" stroke-width="3px" d=" M-31.25,-2.125 C-31.25,-2.125 -18.687999725341797,-2 -18.687999725341797,-2"></path></g></g><g style="display: none;" transform="matrix(1.159999966621399,0,0,1.159999966621399,569.2505493164062,401.6332702636719)" opacity="1"><g opacity="1" transform="matrix(1,0,0,1,0,0)"><path stroke-linecap="butt" stroke-linejoin="miter" fill-opacity="0" stroke-miterlimit="4" stroke="#5A38FD" stroke-opacity="1" stroke-width="3px" d=" M-25,-8.406000137329102 C-25,-8.406000137329102 -24.937999725341797,4.75 -24.937999725341797,4.75"></path></g><g opacity="1" transform="matrix(1,0,0,1,0,0)"><path stroke-linecap="butt" stroke-linejoin="miter" fill-opacity="0" stroke-miterlimit="4" stroke="#5A38FD" stroke-opacity="1" stroke-width="3px" d=" M-31.25,-2.125 C-31.25,-2.125 -18.687999725341797,-2 -18.687999725341797,-2"></path></g></g><g transform="matrix(-0.02584010362625122,-0.5329739451408386,0.5329739451408386,-0.02584010362625122,260.2336120605469,388.0557861328125)" opacity="1" style="display: block;"><g opacity="1" transform="matrix(1,0,0,1,0,0)"><path fill="#FFFFFF" fill-opacity="1" d=" M-105.91999816894531,194.1580047607422 C-105.91999816894531,194.1580047607422 -37.16999816894531,173.59800720214844 10.866000175476074,159.46299743652344 C-9.038999557495117,193.92999267578125 -47.94200134277344,262.3039855957031 -47.94200134277344,262.3039855957031 C-47.94200134277344,262.3039855957031 -61.39400100708008,231.41400146484375 -61.39400100708008,231.41400146484375 C-61.39400100708008,231.41400146484375 -91.44599914550781,260.1659851074219 -97.44499969482422,265.989990234375 C-99.39800262451172,263.77899169921875 -109.9260025024414,251.1580047607422 -112.98200225830078,247.76400756835938 C-105.1709976196289,239.8249969482422 -76.99800109863281,213.32200622558594 -76.99800109863281,213.32200622558594 C-76.99800109863281,213.32200622558594 -105.91999816894531,194.1580047607422 -105.91999816894531,194.1580047607422z"></path><path stroke-linecap="round" stroke-linejoin="miter" fill-opacity="0" stroke-miterlimit="4" stroke="#222433" stroke-opacity="1" stroke-width="4px" d=" M-105.91999816894531,194.1580047607422 C-105.91999816894531,194.1580047607422 -37.16999816894531,173.59800720214844 10.866000175476074,159.46299743652344 C-9.038999557495117,193.92999267578125 -47.94200134277344,262.3039855957031 -47.94200134277344,262.3039855957031 C-47.94200134277344,262.3039855957031 -61.39400100708008,231.41400146484375 -61.39400100708008,231.41400146484375 C-61.39400100708008,231.41400146484375 -91.44599914550781,260.1659851074219 -97.44499969482422,265.989990234375 C-99.39800262451172,263.77899169921875 -109.9260025024414,251.1580047607422 -112.98200225830078,247.76400756835938 C-105.1709976196289,239.8249969482422 -76.99800109863281,213.32200622558594 -76.99800109863281,213.32200622558594 C-76.99800109863281,213.32200622558594 -105.91999816894531,194.1580047607422 -105.91999816894531,194.1580047607422z"></path></g></g><g transform="matrix(0.614799976348877,0,0,0.614799976348877,400.816162109375,277.2154846191406)" opacity="1" style="display: block;"><g opacity="1" transform="matrix(1,0,0,1,0,0)"><path fill="#5A38FD" fill-opacity="1" d=" M238,53 C238,53 220.00399780273438,53 220.00399780273438,53 C220.00399780273438,53 215.3000030517578,25.42099952697754 215.3000030517578,25.42099952697754 C215.3000030517578,25.42099952697754 167.24200439453125,25.42099952697754 167.24200439453125,25.42099952697754 C167.24200439453125,25.42099952697754 150.9499969482422,53 150.9499969482422,53 C150.9499969482422,53 132,53 132,53 C132,53 196.96299743652344,-55 196.96299743652344,-55 C196.96299743652344,-55 218.77699279785156,-55 218.77699279785156,-55 C218.77699279785156,-55 238,53 238,53z M177.0590057373047,8.942000389099121 C177.0590057373047,8.942000389099121 212.5050048828125,8.942000389099121 212.5050048828125,8.942000389099121 C212.5050048828125,8.942000389099121 204.59800720214844,-37.56700134277344 204.59800720214844,-37.56700134277344 C204.59800720214844,-37.56700134277344 177.0590057373047,8.942000389099121 177.0590057373047,8.942000389099121z"></path></g></g><g transform="matrix(0.6089383363723755,-0.08469387143850327,0.08469387143850327,0.6089383363723755,376.8545837402344,316.9137268066406)" opacity="1" style="display: block;"><g opacity="1" transform="matrix(1,0,0,1,0,0)"><g opacity="1" transform="matrix(1,0,0,1,0,0)"><g opacity="1" transform="matrix(1,0,0,1,0,0)"><path fill="#FFFFFF" fill-opacity="1" d=" M449.7993469238281,205.97283935546875 C449.7993469238281,205.97283935546875 400.4114990234375,232.13755798339844 400.4114990234375,232.13755798339844 C392.0140686035156,236.59825134277344 381.594482421875,233.415283203125 377.1397399902344,225.0278778076172 C372.6849670410156,216.64146423339844 375.88287353515625,206.2259521484375 384.28131103515625,201.76524353027344 C384.29132080078125,201.75930786132812 384.3023376464844,201.7543487548828 384.3123474121094,201.7484130859375 C384.3123474121094,201.7484130859375 433.69921875,175.58370971679688 433.69921875,175.58370971679688 C442.10260009765625,171.13201904296875 452.51812744140625,174.32496643066406 456.9638671875,182.71731567382812 C461.4096374511719,191.1096649169922 458.2027282714844,201.52114868164062 449.7993469238281,205.97283935546875 C449.7993469238281,205.97283935546875 449.7993469238281,205.97283935546875 449.7993469238281,205.97283935546875z M390.742919921875,213.88783264160156 C389.0635986328125,214.7817840576172 388.4264221191406,216.86630249023438 389.3193664550781,218.5426025390625 C390.2093505859375,220.21487426757812 392.2858581542969,220.85203552246094 393.964111328125,219.96707153320312 C393.964111328125,219.96707153320312 443.3519592285156,193.8023681640625 443.3519592285156,193.8023681640625 C445.03521728515625,192.91543579101562 445.680419921875,190.83297729492188 444.7944641113281,189.1527099609375 C443.90850830078125,187.4724578857422 441.8260192871094,186.82827758789062 440.14276123046875,187.71620178222656 C440.1387634277344,187.7181854248047 440.1337585449219,187.7211456298828 440.1297607421875,187.72312927246094 C440.1297607421875,187.72312927246094 390.742919921875,213.88783264160156 390.742919921875,213.88783264160156z"></path></g><g opacity="1" transform="matrix(1,0,0,1,0,0)"><path fill="#222433" fill-opacity="1" d=" M401.2230529785156,233.71156311035156 C396.74798583984375,236.0824432373047 391.6196594238281,236.57339477539062 386.77740478515625,235.0940399169922 C381.92913818359375,233.61265563964844 377.9504699707031,230.33253479003906 375.5745849609375,225.8584442138672 C370.6694030761719,216.6228790283203 374.2031555175781,205.11325073242188 383.45074462890625,200.20211791992188 C383.45074462890625,200.20211791992188 432.8706359863281,174.01959228515625 432.8706359863281,174.01959228515625 C442.1231689453125,169.11749267578125 453.63482666015625,172.64724731445312 458.5299987792969,181.88775634765625 C463.4251708984375,191.12826538085938 459.8804626464844,202.63485717773438 450.6279296875,207.53695678710938 C450.6279296875,207.53695678710938 401.2400817871094,233.70166015625 401.2400817871094,233.70166015625 C401.23406982421875,233.7046356201172 401.2290344238281,233.70860290527344 401.2230529785156,233.71156311035156z M385.14093017578125,203.31253051757812 C381.4669189453125,205.2637176513672 378.79461669921875,208.49917602539062 377.584228515625,212.44076538085938 C376.3738708496094,216.3823699951172 376.7734680175781,220.557373046875 378.7058410644531,224.19631958007812 C380.6382141113281,227.83526611328125 383.8727111816406,230.50257873535156 387.81634521484375,231.70697021484375 C391.75396728515625,232.91033935546875 395.9269714355469,232.5097198486328 399.56689453125,230.5813446044922 C399.5718994140625,230.578369140625 399.576904296875,230.577392578125 399.5819396972656,230.5744171142578 C399.5819396972656,230.5744171142578 448.9707946777344,204.40872192382812 448.9707946777344,204.40872192382812 C456.4969787597656,200.42129516601562 459.3792419433594,191.0630340576172 455.39776611328125,183.54786682128906 C451.4162902832031,176.03268432617188 442.0549621582031,173.160400390625 434.5287780761719,177.1478271484375 C434.5287780761719,177.1478271484375 385.14093017578125,203.31253051757812 385.14093017578125,203.31253051757812z M444.18756103515625,195.363525390625 C444.18353271484375,195.36549377441406 444.1805419921875,195.36648559570312 444.1775207519531,195.36846923828125 C444.1775207519531,195.36846923828125 394.7926940917969,221.53118896484375 394.7926940917969,221.53118896484375 C392.2543029785156,222.86851501464844 389.099609375,221.90060424804688 387.7552185058594,219.37515258789062 C387.1008605957031,218.14747619628906 386.9647521972656,216.73648071289062 387.37261962890625,215.4049835205078 C387.7804870605469,214.073486328125 388.681640625,212.97906494140625 389.91131591796875,212.32470703125 C389.9123229980469,212.32371520996094 389.913330078125,212.32371520996094 389.9143371582031,212.32272338867188 C389.9143371582031,212.32272338867188 439.30120849609375,186.15802001953125 439.30120849609375,186.15802001953125 C440.5508728027344,185.49974060058594 441.96185302734375,185.36862182617188 443.2933044433594,185.7794952392578 C444.6247863769531,186.19036865234375 445.7142028808594,187.09451293945312 446.3635559082031,188.326171875 C447.0119323730469,189.55682373046875 447.1430358886719,190.96876525878906 446.7301940917969,192.29824829101562 C446.3173522949219,193.62472534179688 445.41522216796875,194.713134765625 444.18756103515625,195.363525390625z M391.5754699707031,215.44998168945312 C391.1809387207031,215.65985107421875 390.8916015625,216.01007080078125 390.76171875,216.43695068359375 C390.6318359375,216.86383056640625 390.67462158203125,217.3155059814453 390.884521484375,217.70904541015625 C391.3151550292969,218.5181427001953 392.32745361328125,218.82861328125 393.1395568847656,218.40098571777344 C393.1395568847656,218.40098571777344 442.5234069824219,192.23825073242188 442.5234069824219,192.23825073242188 C442.5244140625,192.23727416992188 442.5254211425781,192.23727416992188 442.5263977050781,192.2362823486328 C442.9229431152344,192.0264129638672 443.2122802734375,191.67819213867188 443.3441467285156,191.2523193359375 C443.4760437011719,190.82546997070312 443.43524169921875,190.37379455566406 443.22735595703125,189.97926330566406 C443.01947021484375,189.58473205566406 442.6692810058594,189.29440307617188 442.243408203125,189.1625213623047 C441.8175354003906,189.0306396484375 441.3638610839844,189.07244873046875 440.9693298339844,189.28131103515625 C440.9693298339844,189.28131103515625 391.5754699707031,215.44898986816406 391.5754699707031,215.44898986816406 C391.5754699707031,215.44898986816406 391.5754699707031,215.44998168945312 391.5754699707031,215.44998168945312z"></path></g></g><g opacity="1" transform="matrix(1,0,0,1,0,0)"><path fill="#222433" fill-opacity="1" d=" M469.1507568359375,249.9715118408203 C469.0486145019531,250.02597045898438 468.9425354003906,250.06842041015625 468.8365173339844,250.1008758544922 C462.587890625,253.02963256835938 443.3851623535156,251.6136932373047 441.18255615234375,251.43939208984375 C440.5784912109375,251.3915557861328 440.04083251953125,251.03941345214844 439.7576904296875,250.5046844482422 C439.4745788574219,249.969970703125 439.483642578125,249.3277587890625 439.7838134765625,248.80081176757812 C440.8948059082031,246.84840393066406 450.8152770996094,229.63394165039062 456.7192687988281,226.5067596435547 C463.1970520019531,223.07469177246094 471.25579833984375,225.54522705078125 474.68292236328125,232.01498413085938 C478.11004638671875,238.4847412109375 475.6285400390625,246.53944396972656 469.1507568359375,249.9715118408203z M444.2988586425781,248.0991668701172 C451.3456726074219,248.50131225585938 463.8177795410156,248.76251220703125 467.48175048828125,246.82127380371094 C467.5618591308594,246.77870178222656 467.6449279785156,246.74412536621094 467.72796630859375,246.7145538330078 C472.30291748046875,244.1304168701172 474.0215148925781,238.3404083251953 471.5496826171875,233.67507934570312 C469.0362548828125,228.9306640625 463.1268310546875,227.1186065673828 458.37640380859375,229.63499450683594 C454.7124328613281,231.57623291015625 447.92449951171875,242.04257202148438 444.2988586425781,248.0991668701172z"></path></g><g opacity="1" transform="matrix(1,0,0,1,0,0)"><path fill="#222433" fill-opacity="1" d=" M425.93927001953125,272.863525390625 C419.4615173339844,276.29559326171875 411.40374755859375,273.8250427246094 407.97662353515625,267.3553161621094 C404.54949951171875,260.88555908203125 407.031005859375,252.83084106445312 413.5087890625,249.39877319335938 C419.41278076171875,246.2716064453125 439.2255554199219,247.73240661621094 441.465087890625,247.9098663330078 C442.06915283203125,247.95770263671875 442.6068420410156,248.3098602294922 442.88995361328125,248.84458923339844 C443.1730651855469,249.3793182373047 443.16400146484375,250.0225067138672 442.8638610839844,250.54945373535156 C441.76995849609375,252.469970703125 432.1556701660156,269.15155029296875 426.22283935546875,272.6770935058594 C426.1365966796875,272.7466125488281 426.0414123535156,272.80908203125 425.93927001953125,272.863525390625z M415.1659240722656,252.5279998779297 C410.4154968261719,255.0443878173828 408.595458984375,260.9507751464844 411.1088562011719,265.6951904296875 C413.5807189941406,270.36151123046875 419.3382263183594,272.1908264160156 424.0468444824219,269.85504150390625 C424.11700439453125,269.8034362792969 424.192138671875,269.755859375 424.271240234375,269.7142639160156 C427.9352111816406,267.7730407714844 434.72418212890625,257.30767822265625 438.34979248046875,251.2510986328125 C431.3030090332031,250.8489532470703 418.82989501953125,250.58676147460938 415.1659240722656,252.5279998779297z"></path></g><g opacity="1" transform="matrix(1,0,0,1,0,0)"><path stroke-linecap="butt" stroke-linejoin="miter" fill-opacity="0" stroke-miterlimit="4" stroke="#222433" stroke-opacity="1" stroke-width="4px" d=" M425.0323181152344,218.5738983154297 C447.1700134277344,241.8668670654297 447.406005859375,291.6794738769531 447.406005859375,313.8494567871094"></path></g></g></g><g transform="matrix(0.614799976348877,0,0,0.614799976348877,400.816650390625,277.2157287597656)" opacity="1" style="display: block;"><g opacity="1" transform="matrix(1,0,0,1,0,0)"><path stroke-linecap="round" stroke-linejoin="miter" fill-opacity="0" stroke-miterlimit="4" stroke="#222433" stroke-opacity="1" stroke-width="4px" d=" M128.0659942626953,262.322998046875 C121.34400177001953,279.3039855957031 114.38600158691406,296.2850036621094 113.44300079345703,313.8559875488281"></path></g><g opacity="1" transform="matrix(1,0,0,1,0,0)"><path fill="#82B1FF" fill-opacity="1" d=" M128.6439971923828,250 C134.36399841308594,250 139,254.64300537109375 139,260.37200927734375 C139,266.10101318359375 134.36399841308594,270.7449951171875 128.6439971923828,270.7449951171875 C122.92400360107422,270.7449951171875 118.28800201416016,266.10101318359375 118.28800201416016,260.37200927734375 C118.28800201416016,254.64300537109375 122.92400360107422,250 128.6439971923828,250z"></path></g></g><g transform="matrix(0.614799976348877,0,0,0.614799976348877,400.8157958984375,277.216064453125)" opacity="1" style="display: block;"><g opacity="1" transform="matrix(1,0,0,1,0,0)"><path stroke-linecap="butt" stroke-linejoin="miter" fill-opacity="0" stroke-miterlimit="4" stroke="#222433" stroke-opacity="1" stroke-width="4px" d=" M97.052001953125,272.8179931640625 C106.48600006103516,288.14801025390625 112.14600372314453,297.9360046386719 113.32499694824219,313.8559875488281"></path></g><g opacity="1" transform="matrix(1,0,0,1,0,0)"><path fill="#82B1FF" fill-opacity="1" d=" M97.17900085449219,264.60101318359375 C101.69599914550781,264.60101318359375 105.35900115966797,268.2690124511719 105.35900115966797,272.7929992675781 C105.35900115966797,277.3169860839844 101.69599914550781,280.9849853515625 97.17900085449219,280.9849853515625 C92.66200256347656,280.9849853515625 89,277.3169860839844 89,272.7929992675781 C89,268.2690124511719 92.66200256347656,264.60101318359375 97.17900085449219,264.60101318359375z"></path></g></g><g transform="matrix(0.614799976348877,0,0,0.614799976348877,400.8160095214844,277.2155456542969)" opacity="1" style="display: block;"><g opacity="1" transform="matrix(1,0,0,1,0,0)"><g opacity="1" transform="matrix(1,0,0,1,0,0)"><path fill="#222433" fill-opacity="1" d=" M349.22900390625,315 C348.12200927734375,315.0010070800781 347.2250061035156,314.1059875488281 347.2239990234375,313.00201416015625 C347.2239990234375,312.8210144042969 347.2489929199219,312.6419982910156 347.2969970703125,312.4679870605469 C347.2969970703125,312.4679870605469 438.77801513671875,-17.00200080871582 438.77801513671875,-17.00200080871582 C438.77801513671875,-17.00200080871582 295.71099853515625,-17.00200080871582 295.71099853515625,-17.00200080871582 C295.71099853515625,-17.00200080871582 203.93499755859375,313.53399658203125 203.93499755859375,313.53399658203125 C203.62399291992188,314.593994140625 202.50999450683594,315.20098876953125 201.447998046875,314.8900146484375 C200.40899658203125,314.58599853515625 199.8000030517578,313.51300048828125 200.072998046875,312.4679870605469 C200.072998046875,312.4679870605469 292.2560119628906,-19.534000396728516 292.2560119628906,-19.534000396728516 C292.4960021972656,-20.399999618530273 293.2860107421875,-21 294.18701171875,-21 C294.18701171875,-21 441.4119873046875,-21 441.4119873046875,-21 C442.5190124511719,-21 443.4159851074219,-20.104999542236328 443.4159851074219,-19.000999450683594 C443.4159851074219,-18.820999145507812 443.3919982910156,-18.642000198364258 443.343994140625,-18.468000411987305 C443.343994140625,-18.468000411987305 351.1610107421875,313.53399658203125 351.1610107421875,313.53399658203125 C350.9209899902344,314.3999938964844 350.1300048828125,315 349.22900390625,315z"></path></g><g opacity="1" transform="matrix(1,0,0,1,0,0)"><path fill="#222433" fill-opacity="1" d=" M533.9959716796875,315 C533.0960083007812,314.9989929199219 532.3060302734375,314.3999938964844 532.0659790039062,313.53399658203125 C532.0659790039062,313.53399658203125 440.28900146484375,-17.00200080871582 440.28900146484375,-17.00200080871582 C440.28900146484375,-17.00200080871582 297.1549987792969,-17.00200080871582 297.1549987792969,-17.00200080871582 C297.1549987792969,-17.00200080871582 388.635009765625,312.4679870605469 388.635009765625,312.4679870605469 C388.9460144042969,313.52801513671875 388.3380126953125,314.63800048828125 387.2760009765625,314.9490051269531 C386.2139892578125,315.260009765625 385.1000061035156,314.6520080566406 384.78900146484375,313.5920104980469 C384.7829895019531,313.572998046875 384.77801513671875,313.5539855957031 384.77301025390625,313.53399658203125 C384.77301025390625,313.53399658203125 292.5899963378906,-18.468000411987305 292.5899963378906,-18.468000411987305 C292.2950134277344,-19.531999588012695 292.9200134277344,-20.634000778198242 293.98699951171875,-20.92799949645996 C294.1610107421875,-20.97599983215332 294.34100341796875,-21 294.52099609375,-21 C294.52099609375,-21 441.81298828125,-21 441.81298828125,-21 C442.7139892578125,-21 443.5039978027344,-20.399999618530273 443.7439880371094,-19.534000396728516 C443.7439880371094,-19.534000396728516 535.927001953125,312.4679870605469 535.927001953125,312.4679870605469 C536.2219848632812,313.5320129394531 535.5969848632812,314.6340026855469 534.530029296875,314.9280090332031 C534.3560180664062,314.97601318359375 534.176025390625,315 533.9959716796875,315z"></path></g><g opacity="1" transform="matrix(1,0,0,1,0,0)"><path fill="#222433" fill-opacity="1" d=" M424.44500732421875,44.24100112915039 C424.44500732421875,44.24100112915039 277.15301513671875,44.24100112915039 277.15301513671875,44.24100112915039 C276.0459899902344,44.24100112915039 275.14898681640625,43.34600067138672 275.14898681640625,42.242000579833984 C275.14898681640625,41.13800048828125 276.0459899902344,40.242000579833984 277.15301513671875,40.242000579833984 C277.15301513671875,40.242000579833984 424.44500732421875,40.242000579833984 424.44500732421875,40.242000579833984 C425.552001953125,40.242000579833984 426.4490051269531,41.13800048828125 426.4490051269531,42.242000579833984 C426.4490051269531,43.34600067138672 425.552001953125,44.24100112915039 424.44500732421875,44.24100112915039z"></path></g><g opacity="1" transform="matrix(1,0,0,1,0,0)"><path fill="#222433" fill-opacity="1" d=" M404.6730041503906,115.5459976196289 C404.6730041503906,115.5459976196289 257.3810119628906,115.5459976196289 257.3810119628906,115.5459976196289 C256.27398681640625,115.5459976196289 255.3769989013672,114.6510009765625 255.3769989013672,113.5469970703125 C255.3769989013672,112.44300079345703 256.27398681640625,111.5469970703125 257.3810119628906,111.5469970703125 C257.3810119628906,111.5469970703125 404.6730041503906,111.5469970703125 404.6730041503906,111.5469970703125 C405.7799987792969,111.5469970703125 406.677001953125,112.44300079345703 406.677001953125,113.5469970703125 C406.677001953125,114.6510009765625 405.7799987792969,115.5459976196289 404.6730041503906,115.5459976196289z"></path></g><g opacity="1" transform="matrix(1,0,0,1,0,0)"><path fill="#222433" fill-opacity="1" d=" M384.8330078125,186.78399658203125 C384.8330078125,186.78399658203125 237.54100036621094,186.78399658203125 237.54100036621094,186.78399658203125 C236.4340057373047,186.78399658203125 235.53700256347656,185.88900756835938 235.53700256347656,184.78500366210938 C235.53700256347656,183.68099975585938 236.4340057373047,182.78599548339844 237.54100036621094,182.78599548339844 C237.54100036621094,182.78599548339844 384.8330078125,182.78599548339844 384.8330078125,182.78599548339844 C385.94000244140625,182.78599548339844 386.8370056152344,183.68099975585938 386.8370056152344,184.78500366210938 C386.8370056152344,185.88900756835938 385.94000244140625,186.78399658203125 384.8330078125,186.78399658203125z"></path></g><g opacity="1" transform="matrix(1,0,0,1,0,0)"><path fill="#222433" fill-opacity="1" d=" M365.0610046386719,258.0889892578125 C365.0610046386719,258.0889892578125 217.7689971923828,258.0889892578125 217.7689971923828,258.0889892578125 C216.66200256347656,258.0889892578125 215.76499938964844,257.1940002441406 215.76499938964844,256.0899963378906 C215.76499938964844,254.98599243164062 216.66200256347656,254.09100341796875 217.7689971923828,254.09100341796875 C217.7689971923828,254.09100341796875 365.0610046386719,254.09100341796875 365.0610046386719,254.09100341796875 C366.1679992675781,254.09100341796875 367.06500244140625,254.98599243164062 367.06500244140625,256.0899963378906 C367.06500244140625,257.1940002441406 366.1679992675781,258.0889892578125 365.0610046386719,258.0889892578125z"></path></g></g></g><g transform="matrix(0.614799976348877,0,0,0.614799976348877,400.8167419433594,277.2157897949219)" opacity="1" style="display: block;"><g opacity="1" transform="matrix(1,0,0,1,0,0)"><path fill="#5A38FD" fill-opacity="1" d=" M-314.1830139160156,293.0085144042969 C-314.1830139160156,293.0085144042969 -290.6300048828125,181.7624969482422 -290.6300048828125,181.7624969482422 C-290.6300048828125,181.7624969482422 -198.10000610351562,207.82000732421875 -198.10000610351562,207.82000732421875 C-198.10000610351562,207.82000732421875 -198.4965057373047,254.54249572753906 -198.4965057373047,254.54249572753906 C-197.3769989013672,263.7244873046875 -188.79849243164062,267.906494140625 -182.50250244140625,269.5115051269531 C-182.50250244140625,269.5115051269531 -178.41900634765625,270.0035095214844 -178.41900634765625,270.0035095214844 C-168.32249450683594,270.8894958496094 -160.2895050048828,276.9184875488281 -158.86399841308594,289.68450927734375 C-166.5395050048828,302.8800048828125 -228.04800415039062,304.8280029296875 -228.04800415039062,304.8280029296875 C-228.04800415039062,304.8280029296875 -261.10400390625,300.1514892578125 -261.10400390625,300.1514892578125 C-261.10400390625,300.1514892578125 -269.5169982910156,260.3330078125 -269.5169982910156,260.3330078125 C-269.5169982910156,260.3330078125 -277.34600830078125,297.5480041503906 -277.34600830078125,297.5480041503906 C-277.34600830078125,297.5480041503906 -314.1830139160156,293.0085144042969 -314.1830139160156,293.0085144042969z"></path></g></g><g transform="matrix(0.614799976348877,0,0,0.614799976348877,385.4461975097656,277.2160339355469)" opacity="1" style="display: block;"><g opacity="1" transform="matrix(1,0,0,1,0,0)"><path fill="#5A38FD" fill-opacity="1" d=" M-502.8039855957031,258.1236877441406 C-502.8039855957031,258.1236877441406 -437.997802734375,183.17649841308594 -437.997802734375,183.17649841308594 C-437.997802734375,183.17649841308594 -358.6719970703125,238.12600708007812 -358.6719970703125,238.12600708007812 C-358.6719970703125,238.12600708007812 -380.1283874511719,264.0234069824219 -380.1283874511719,264.0234069824219 C-386.99261474609375,271.6860046386719 -379.45001220703125,284.3739929199219 -373.6300048828125,287.7770080566406 C-373.6300048828125,287.7770080566406 -370.6189880371094,289.5790100097656 -370.6189880371094,289.5790100097656 C-362.0459899902344,294.59698486328125 -356.7049865722656,313.66400146484375 -356.7049865722656,313.66400146484375 C-356.7049865722656,313.66400146484375 -422.7980041503906,313.99700927734375 -422.7980041503906,313.99700927734375 C-422.7980041503906,313.99700927734375 -458.6676940917969,292.2637939453125 -458.6676940917969,292.2637939453125 C-458.6676940917969,292.2637939453125 -451.9689025878906,256.7804870605469 -451.9689025878906,256.7804870605469 C-451.9689025878906,256.7804870605469 -473.2300109863281,281.2650146484375 -473.2300109863281,281.2650146484375 C-473.2300109863281,281.2650146484375 -502.8039855957031,258.1236877441406 -502.8039855957031,258.1236877441406z"></path></g></g><g transform="matrix(0.5030863285064697,0.35338810086250305,-0.35338810086250305,0.5030863285064697,469.26702880859375,379.5700988769531)" opacity="1" style="display: block;"><g opacity="1" transform="matrix(1,0,0,1,0,0)"><path fill="#222433" fill-opacity="1" d=" M-227.8350067138672,213.0540008544922 C-228.9429931640625,213.05299377441406 -229.8419952392578,212.156005859375 -229.84100341796875,211.05099487304688 C-229.84100341796875,210.1840057373047 -229.27999877929688,209.4149932861328 -228.4530029296875,209.1479949951172 C-228.4530029296875,209.1479949951172 -163.95799255371094,188.3090057373047 -163.95799255371094,188.3090057373047 C-158.5850067138672,186.5659942626953 -152.81199645996094,189.4969940185547 -151.06399536132812,194.8560028076172 C-150.8070068359375,195.6439971923828 -150.6479949951172,196.46200561523438 -150.58900451660156,197.28900146484375 C-150.19000244140625,202.9080047607422 -154.4340057373047,207.78500366210938 -160.0679931640625,208.18299865722656 C-160.06900024414062,208.18299865722656 -160.06900024414062,208.1840057373047 -160.07000732421875,208.1840057373047 C-160.07000732421875,208.1840057373047 -227.6909942626953,213.0540008544922 -227.6909942626953,213.0540008544922 C-227.74000549316406,213.0540008544922 -227.78799438476562,213.0540008544922 -227.8350067138672,213.0540008544922z M-160.74899291992188,191.8090057373047 C-160.90499877929688,191.8090057373047 -161.06199645996094,191.81399536132812 -161.21800231933594,191.8260040283203 C-161.72300720214844,191.86099243164062 -162.2209930419922,191.95700073242188 -162.7030029296875,192.11199951171875 C-162.7030029296875,192.11199951171875 -211.46299743652344,207.86700439453125 -211.46299743652344,207.86700439453125 C-211.46299743652344,207.86700439453125 -160.35499572753906,204.18800354003906 -160.35499572753906,204.18800354003906 C-158.70399475097656,204.07400512695312 -157.16600036621094,203.3070068359375 -156.0850067138672,202.0570068359375 C-153.8419952392578,199.4669952392578 -154.1300048828125,195.55299377441406 -156.7270050048828,193.3159942626953 C-157.84500122070312,192.35299682617188 -159.2689971923828,191.81900024414062 -160.74600219726562,191.8090057373047 C-160.74600219726562,191.8090057373047 -160.74899291992188,191.8090057373047 -160.74899291992188,191.8090057373047z"></path></g></g><g transform="matrix(0.4150141179561615,0.45358818769454956,-0.45358818769454956,0.4150141179561615,470.32843017578125,421.0522766113281)" opacity="1" style="display: block;"><g opacity="1" transform="matrix(1,0,0,1,0,0)"><path fill="#222433" fill-opacity="1" d=" M-227.8350067138672,213.0540008544922 C-228.9429931640625,213.05499267578125 -229.8419952392578,212.15899658203125 -229.84300231933594,211.0540008544922 C-229.84300231933594,210.43499755859375 -229.5570068359375,209.85000610351562 -229.0659942626953,209.4709930419922 C-229.0659942626953,209.4709930419922 -175.48300170898438,168.01100158691406 -175.48300170898438,168.01100158691406 C-174.8209991455078,167.49600219726562 -174.0970001220703,167.0659942626953 -173.3280029296875,166.7310028076172 C-170.83200073242188,165.63400268554688 -168.0019989013672,165.57200622558594 -165.4600067138672,166.5570068359375 C-162.91799926757812,167.5260009765625 -160.87600708007812,169.4770050048828 -159.79800415039062,171.96800231933594 C-158.7100067138672,174.44900512695312 -158.65199279785156,177.25999450683594 -159.63699340820312,179.78399658203125 C-160.60800170898438,182.31900024414062 -162.56500244140625,184.35499572753906 -165.06300354003906,185.42999267578125 C-165.06300354003906,185.42999267578125 -227.0189971923828,212.88099670410156 -227.0189971923828,212.88099670410156 C-227.2760009765625,212.9949951171875 -227.5540008544922,213.0540008544922 -227.8350067138672,213.0540008544922z M-169.18499755859375,169.86399841308594 C-170.05099487304688,169.86500549316406 -170.90699768066406,170.04400634765625 -171.7010040283203,170.38900756835938 C-172.1649932861328,170.58900451660156 -172.6020050048828,170.8470001220703 -173.0019989013672,171.15499877929688 C-173.0019989013672,171.15499877929688 -213.5540008544922,202.53399658203125 -213.5540008544922,202.53399658203125 C-213.5540008544922,202.53399658203125 -166.6790008544922,181.76499938964844 -166.6790008544922,181.76499938964844 C-165.16099548339844,181.11399841308594 -163.97300720214844,179.8780059814453 -163.38299560546875,178.33900451660156 C-162.781005859375,176.79600524902344 -162.81700134277344,175.07899475097656 -163.48300170898438,173.56199645996094 C-164.13699340820312,172.05599975585938 -165.3719940185547,170.8769989013672 -166.91000366210938,170.29299926757812 C-167.63499450683594,170.01199340820312 -168.406005859375,169.8679962158203 -169.1840057373047,169.86700439453125 C-169.1840057373047,169.86700439453125 -169.18499755859375,169.86399841308594 -169.18499755859375,169.86399841308594z"></path></g></g><g transform="matrix(0.23584118485450745,0.5677657127380371,-0.5677657127380371,0.23584118485450745,383.50579833984375,601.3692016601562)" opacity="1" style="display: block;"><g opacity="1" transform="matrix(1,0,0,1,0,0)"><path fill="#222433" fill-opacity="1" d=" M-404.5060119628906,221.1929931640625 C-405.614013671875,221.1929931640625 -406.51300048828125,220.2969970703125 -406.51300048828125,219.19200134277344 C-406.51300048828125,218.32400512695312 -405.9519958496094,217.55499267578125 -405.1239929199219,217.28799438476562 C-405.1239929199219,217.28799438476562 -350.1700134277344,199.4980010986328 -350.1700134277344,199.4980010986328 C-349.4909973144531,199.29100036621094 -348.79400634765625,199.1510009765625 -348.0880126953125,199.07899475097656 C-345.6809997558594,198.88699340820312 -343.2980041503906,199.66099548339844 -341.46600341796875,201.22900390625 C-339.6400146484375,202.78199768066406 -338.51800537109375,205.00399780273438 -338.35400390625,207.39199829101562 C-338.1759948730469,209.77499389648438 -338.9530029296875,212.1300048828125 -340.5150146484375,213.9409942626953 C-342.0719909667969,215.76199340820312 -344.29998779296875,216.88099670410156 -346.6940002441406,217.04400634765625 C-346.6940002441406,217.04400634765625 -404.3580017089844,221.18800354003906 -404.3580017089844,221.18800354003906 C-404.4110107421875,221.1929931640625 -404.4590148925781,221.1929931640625 -404.5060119628906,221.1929931640625z M-347.37701416015625,203.05299377441406 C-347.4989929199219,203.05299377441406 -347.6210021972656,203.0570068359375 -347.7439880371094,203.0659942626953 C-348.1600036621094,203.11199951171875 -348.5710144042969,203.19700622558594 -348.97198486328125,203.3179931640625 C-348.97198486328125,203.3179931640625 -388.1839904785156,216.01499938964844 -388.1839904785156,216.01499938964844 C-388.1839904785156,216.01499938964844 -346.98199462890625,213.0540008544922 -346.98199462890625,213.0540008544922 C-345.6570129394531,212.96400451660156 -344.42401123046875,212.34500122070312 -343.56201171875,211.33700561523438 C-341.75,209.24200439453125 -341.9849853515625,206.0780029296875 -344.08599853515625,204.27099609375 C-345.00201416015625,203.48300170898438 -346.1719970703125,203.052001953125 -347.3810119628906,203.05499267578125 C-347.3810119628906,203.05499267578125 -347.37701416015625,203.05299377441406 -347.37701416015625,203.05299377441406z"></path></g></g><g transform="matrix(0.2897137403488159,0.5422590970993042,-0.5422590970993042,0.2897137403488159,399.6418151855469,579.3038330078125)" opacity="1" style="display: block;"><g opacity="1" transform="matrix(1,0,0,1,0,0)"><path fill="#222433" fill-opacity="1" d=" M-404.5060119628906,221.1929931640625 C-405.614013671875,221.1929931640625 -406.5140075683594,220.29800415039062 -406.5140075683594,219.1929931640625 C-406.5140075683594,218.57400512695312 -406.22698974609375,217.98800659179688 -405.7359924316406,217.60899353027344 C-405.7359924316406,217.60899353027344 -360.07598876953125,182.33799743652344 -360.07598876953125,182.33799743652344 C-359.5039978027344,181.86000061035156 -358.864990234375,181.4669952392578 -358.1789855957031,181.1739959716797 C-353.61199951171875,179.17300415039062 -348.28399658203125,181.24000549316406 -346.2720031738281,185.79200744628906 C-344.239013671875,190.29400634765625 -346.2489929199219,195.58799743652344 -350.76300048828125,197.61599731445312 C-350.7929992675781,197.62899780273438 -350.8219909667969,197.64199829101562 -350.85198974609375,197.65499877929688 C-350.85198974609375,197.65499877929688 -403.6910095214844,221.02099609375 -403.6910095214844,221.02099609375 C-403.9469909667969,221.13499450683594 -404.2250061035156,221.1929931640625 -404.5060119628906,221.1929931640625z M-354.5469970703125,184.4149932861328 C-355.239990234375,184.4149932861328 -355.92498779296875,184.5590057373047 -356.5589904785156,184.83700561523438 C-356.89300537109375,184.97500610351562 -357.2049865722656,185.16299438476562 -357.4830017089844,185.3939971923828 C-357.51300048828125,185.42100524902344 -357.5450134277344,185.44500732421875 -357.57598876953125,185.47000122070312 C-357.57598876953125,185.47000122070312 -390.2120056152344,210.68099975585938 -390.2120056152344,210.68099975585938 C-390.2120056152344,210.68099975585938 -352.47100830078125,193.99099731445312 -352.47100830078125,193.99099731445312 C-349.9639892578125,192.9029998779297 -348.8160095214844,189.9949951171875 -349.9070129394531,187.4949951171875 C-349.9179992675781,187.47000122070312 -349.9289855957031,187.44500732421875 -349.94000244140625,187.4199981689453 C-350.7409973144531,185.59500122070312 -352.54901123046875,184.41700744628906 -354.5459899902344,184.41799926757812 C-354.5459899902344,184.41799926757812 -354.5469970703125,184.4149932861328 -354.5469970703125,184.4149932861328z"></path></g></g><g transform="matrix(0.614799976348877,0,0,0.614799976348877,400.8169860839844,277.2158203125)" opacity="1" style="display: block;"><g opacity="1" transform="matrix(1,0,0,1,0,0)"><path fill="#FFFFFF" fill-opacity="1" d=" M-112.9573974609375,41.79819869995117 C-104.60240173339844,53.308799743652344 -102.17579650878906,73.33719635009766 -106.9657974243164,82.29219818115234 C-106.9657974243164,82.29219818115234 -196.8843994140625,208.79559326171875 -196.8843994140625,208.79559326171875 C-196.8843994140625,208.79559326171875 -289.05120849609375,182.96600341796875 -289.05120849609375,182.96600341796875 C-289.05120849609375,182.96600341796875 -210.164794921875,56.07059860229492 -210.164794921875,56.07059860229492 C-210.164794921875,56.07059860229492 -224.17140197753906,25.533199310302734 -224.17140197753906,25.533199310302734"></path><path stroke-linecap="round" stroke-linejoin="round" fill-opacity="0" stroke="#222433" stroke-opacity="1" stroke-width="4px" d=" M-112.9573974609375,41.79819869995117 C-104.60240173339844,53.308799743652344 -102.17579650878906,73.33719635009766 -106.9657974243164,82.29219818115234 C-106.9657974243164,82.29219818115234 -196.8843994140625,208.79559326171875 -196.8843994140625,208.79559326171875 C-196.8843994140625,208.79559326171875 -289.05120849609375,182.96600341796875 -289.05120849609375,182.96600341796875 C-289.05120849609375,182.96600341796875 -210.164794921875,56.07059860229492 -210.164794921875,56.07059860229492 C-210.164794921875,56.07059860229492 -224.17140197753906,25.533199310302734 -224.17140197753906,25.533199310302734"></path></g><g opacity="1" transform="matrix(1,0,0,1,0,0)"><path stroke-linecap="round" stroke-linejoin="round" fill-opacity="0" stroke="#222433" stroke-opacity="1" stroke-width="4px" d=" M-194.4508056640625,57.194400787353516 C-198.51800537109375,56.93939971923828 -210.1768035888672,56.12779998779297 -210.1768035888672,56.12779998779297 C-210.1768035888672,56.12779998779297 -196.15919494628906,68.01899719238281 -193.36959838867188,70.24040222167969"></path></g></g><g transform="matrix(0.614799976348877,0,0,0.614799976348877,400.81622314453125,277.2162780761719)" opacity="1" style="display: block;"><g opacity="1" transform="matrix(1,0,0,1,0,0)"><path fill="#FFFFFF" fill-opacity="1" d=" M-345.38330078125,42.3651008605957 C-345.38330078125,42.3651008605957 -365.34588623046875,96.51709747314453 -365.34588623046875,96.51709747314453 C-365.34588623046875,96.51709747314453 -462.8118896484375,184.17250061035156 -462.8118896484375,184.17250061035156 C-462.8118896484375,184.17250061035156 -383.4507141113281,238.3153076171875 -383.4507141113281,238.3153076171875 C-383.4507141113281,238.3153076171875 -279.45660400390625,143.36839294433594 -272.81451416015625,128.0850067138672 C-266.2481994628906,113.42220306396484 -253.50320434570312,85.04460144042969 -253.50320434570312,85.04460144042969 C-253.50320434570312,85.04460144042969 -263.2712097167969,67.20790100097656 -263.2712097167969,67.20790100097656 C-263.2712097167969,67.20790100097656 -345.38330078125,42.3651008605957 -345.38330078125,42.3651008605957z"></path><path stroke-linecap="round" stroke-linejoin="round" fill-opacity="0" stroke="#222433" stroke-opacity="1" stroke-width="4px" d=" M-345.38330078125,42.3651008605957 C-345.38330078125,42.3651008605957 -365.34588623046875,96.51709747314453 -365.34588623046875,96.51709747314453 C-365.34588623046875,96.51709747314453 -462.8118896484375,184.17250061035156 -462.8118896484375,184.17250061035156 C-462.8118896484375,184.17250061035156 -383.4507141113281,238.3153076171875 -383.4507141113281,238.3153076171875 C-383.4507141113281,238.3153076171875 -279.45660400390625,143.36839294433594 -272.81451416015625,128.0850067138672 C-266.2481994628906,113.42220306396484 -253.50320434570312,85.04460144042969 -253.50320434570312,85.04460144042969 C-253.50320434570312,85.04460144042969 -263.2712097167969,67.20790100097656 -263.2712097167969,67.20790100097656 C-263.2712097167969,67.20790100097656 -345.38330078125,42.3651008605957 -345.38330078125,42.3651008605957z"></path></g><g opacity="1" transform="matrix(1,0,0,1,0,0)"><path fill="#90D6E1" fill-opacity="1" d=" M-365.3420104980469,96.5801010131836 C-363.927001953125,98.1720962524414 -348.3848876953125,113.21949768066406 -346.6748962402344,115.10649871826172"></path><path stroke-linecap="round" stroke-linejoin="round" fill-opacity="0" stroke="#222433" stroke-opacity="1" stroke-width="4px" d=" M-365.3420104980469,96.5801010131836 C-363.927001953125,98.1720962524414 -348.3848876953125,113.21949768066406 -346.6748962402344,115.10649871826172"></path></g></g><g transform="matrix(0.6077101826667786,-0.09309838712215424,0.09309838712215424,0.6077101826667786,369.6573791503906,281.3095397949219)" opacity="1" style="display: block;"><g opacity="1" transform="matrix(1,0,0,1,0,0)"><path fill="#FFFFFF" fill-opacity="1" d=" M-137.5330047607422,-79.98699951171875 C-133.7530059814453,-82.02200317382812 -129.36500549316406,-84.3030014038086 -123.01000213623047,-87.43900299072266 C-106.41999816894531,-95.71199798583984 -55.57899856567383,-106.0530014038086 -53.84000015258789,-93.5770034790039 C-52.77000045776367,-85.97100067138672 -66.55000305175781,-85.97100067138672 -91.03399658203125,-79.4990005493164 C-68.4229965209961,-81.43399810791016 -50.71900177001953,-68.05500030517578 -52.86000061035156,-60.44900131225586 C-52.86000061035156,-60.44900131225586 -55.39099884033203,-61.034000396728516 -55.39099884033203,-61.034000396728516 C-55.39099884033203,-61.034000396728516 -72.47200012207031,-64.9749984741211 -72.47200012207031,-64.9749984741211 C-72.47200012207031,-64.9749984741211 -95.11900329589844,-70.19999694824219 -95.11900329589844,-70.19999694824219 C-95.11900329589844,-70.19999694824219 -137.5330047607422,-79.98699951171875 -137.5330047607422,-79.98699951171875z"></path><path stroke-linecap="round" stroke-linejoin="round" fill-opacity="0" stroke="#242635" stroke-opacity="1" stroke-width="4px" d=" M-137.5330047607422,-79.98699951171875 C-133.7530059814453,-82.02200317382812 -129.36500549316406,-84.3030014038086 -123.01000213623047,-87.43900299072266 C-106.41999816894531,-95.71199798583984 -55.57899856567383,-106.0530014038086 -53.84000015258789,-93.5770034790039 C-52.77000045776367,-85.97100067138672 -66.55000305175781,-85.97100067138672 -91.03399658203125,-79.4990005493164 C-68.4229965209961,-81.43399810791016 -50.71900177001953,-68.05500030517578 -52.86000061035156,-60.44900131225586 C-52.86000061035156,-60.44900131225586 -55.39099884033203,-61.034000396728516 -55.39099884033203,-61.034000396728516 C-55.39099884033203,-61.034000396728516 -72.47200012207031,-64.9749984741211 -72.47200012207031,-64.9749984741211 C-72.47200012207031,-64.9749984741211 -95.11900329589844,-70.19999694824219 -95.11900329589844,-70.19999694824219 C-95.11900329589844,-70.19999694824219 -137.5330047607422,-79.98699951171875 -137.5330047607422,-79.98699951171875z"></path></g></g><g transform="matrix(0.6088781952857971,-0.08512510359287262,0.08512510359287262,0.6088781952857971,403.904296875,280.8512268066406)" opacity="1" style="display: block;"><g opacity="1" transform="matrix(1,0,0,1,0,0)"><path fill="#FFFFFF" fill-opacity="1" d=" M-426.6470642089844,-107.65498352050781 C-426.6470642089844,-107.65498352050781 -443.3411560058594,-33.08549118041992 -443.3411560058594,-33.08549118041992 C-443.3411560058594,-33.08549118041992 -22.493377685546875,64.54032135009766 -22.493377685546875,64.54032135009766 C-22.493377685546875,64.54032135009766 -6.09220027923584,-10.704313278198242 -6.09220027923584,-10.704313278198242 C-6.09220027923584,-10.704313278198242 -426.6470642089844,-107.65498352050781 -426.6470642089844,-107.65498352050781z"></path><path stroke-linecap="round" stroke-linejoin="round" fill-opacity="0" stroke="#222433" stroke-opacity="1" stroke-width="4px" d=" M-426.6470642089844,-107.65498352050781 C-426.6470642089844,-107.65498352050781 -443.3411560058594,-33.08549118041992 -443.3411560058594,-33.08549118041992 C-443.3411560058594,-33.08549118041992 -22.493377685546875,64.54032135009766 -22.493377685546875,64.54032135009766 C-22.493377685546875,64.54032135009766 -6.09220027923584,-10.704313278198242 -6.09220027923584,-10.704313278198242 C-6.09220027923584,-10.704313278198242 -426.6470642089844,-107.65498352050781 -426.6470642089844,-107.65498352050781z"></path></g><g opacity="1" transform="matrix(1,0,0,1,0,0)"><path fill="#FFFFFF" fill-opacity="1" d=" M-503.8089294433594,-6.730353355407715 C-503.8089294433594,-6.730353355407715 -443.31591796875,-32.84276580810547 -443.31591796875,-32.84276580810547 C-443.31591796875,-32.84276580810547 -20.55476188659668,65.05570220947266 -20.55476188659668,65.05570220947266 C-20.55476188659668,65.05570220947266 -75.02999877929688,87.9520034790039 -75.02999877929688,87.9520034790039 C-75.02999877929688,87.9520034790039 -503.8089294433594,-6.730353355407715 -503.8089294433594,-6.730353355407715z"></path><path stroke-linecap="round" stroke-linejoin="round" fill-opacity="0" stroke="#222433" stroke-opacity="1" stroke-width="4px" d=" M-503.8089294433594,-6.730353355407715 C-503.8089294433594,-6.730353355407715 -443.31591796875,-32.84276580810547 -443.31591796875,-32.84276580810547 C-443.31591796875,-32.84276580810547 -20.55476188659668,65.05570220947266 -20.55476188659668,65.05570220947266 C-20.55476188659668,65.05570220947266 -75.02999877929688,87.9520034790039 -75.02999877929688,87.9520034790039 C-75.02999877929688,87.9520034790039 -503.8089294433594,-6.730353355407715 -503.8089294433594,-6.730353355407715z"></path></g><g opacity="1" transform="matrix(1,0,0,1,0,0)"><path fill="#FFFFFF" fill-opacity="1" d=" M-8.009200096130371,-10.60631275177002 C-8.009200096130371,-10.60631275177002 -426.89208984375,-107.89090728759766 -426.89208984375,-107.89090728759766 C-426.89208984375,-107.89090728759766 -469.5755615234375,-156.31105041503906 -469.5755615234375,-156.31105041503906 C-469.5755615234375,-156.31105041503906 -49.224998474121094,-59.016998291015625 -49.224998474121094,-59.016998291015625 C-49.224998474121094,-59.016998291015625 -8.009200096130371,-10.60631275177002 -8.009200096130371,-10.60631275177002z"></path><path stroke-linecap="round" stroke-linejoin="round" fill-opacity="0" stroke="#222433" stroke-opacity="1" stroke-width="4px" d=" M-8.009200096130371,-10.60631275177002 C-8.009200096130371,-10.60631275177002 -426.89208984375,-107.89090728759766 -426.89208984375,-107.89090728759766 C-426.89208984375,-107.89090728759766 -469.5755615234375,-156.31105041503906 -469.5755615234375,-156.31105041503906 C-469.5755615234375,-156.31105041503906 -49.224998474121094,-59.016998291015625 -49.224998474121094,-59.016998291015625 C-49.224998474121094,-59.016998291015625 -8.009200096130371,-10.60631275177002 -8.009200096130371,-10.60631275177002z"></path></g><g opacity="1" transform="matrix(1,0,0,1,0,0)"><path fill="#5A38FD" fill-opacity="1" d=" M35.34000015258789,38.29199981689453 C21.07900047302246,8.324999809265137 -47.96200180053711,-60.57400131225586 -47.96200180053711,-60.57400131225586 C-47.96200180053711,-60.57400131225586 -50.82099914550781,-57.80099868774414 -50.76900100708008,-57.73500061035156 C-50.76900100708008,-57.73500061035156 -50.7599983215332,-57.722999572753906 -50.7599983215332,-57.722999572753906 C-50.7599983215332,-57.722999572753906 -9.915728569030762,-9.752144813537598 -9.915728569030762,-9.752144813537598 C-9.915728569030762,-9.752144813537598 -26.564456939697266,67.14713287353516 -26.5694580078125,67.17212677001953 C-26.58245849609375,67.24312591552734 -75.02300262451172,88.01499938964844 -74.9990005493164,88.01000213623047 C-8.095000267028809,75.05899810791016 16.861000061035156,55.98899841308594 34.96500015258789,40.957000732421875 C35.7599983215332,40.29800033569336 35.900001525878906,39.46900177001953 35.34000015258789,38.29199981689453z"></path></g><g opacity="1" transform="matrix(1,0,0,1,0,0)"><path fill="#FFFFFF" fill-opacity="1" d=" M-426.3619689941406,-107.34811401367188 C-426.3619689941406,-107.34811401367188 -443.40185546875,-32.58932113647461 -443.40185546875,-32.58932113647461 C-443.40185546875,-32.58932113647461 -503.7611999511719,-6.720544815063477 -503.7611999511719,-6.720544815063477 C-503.7611999511719,-6.720544815063477 -546.8927001953125,-55.73644256591797 -546.8927001953125,-55.73644256591797 C-546.8927001953125,-55.73644256591797 -529.887939453125,-130.4561767578125 -529.887939453125,-130.4561767578125 C-529.887939453125,-130.4561767578125 -469.4117736816406,-156.3530731201172 -469.4117736816406,-156.3530731201172 C-469.4117736816406,-156.3530731201172 -426.3619689941406,-107.34811401367188 -426.3619689941406,-107.34811401367188z"></path><path stroke-linecap="round" stroke-linejoin="round" fill-opacity="0" stroke="#222433" stroke-opacity="1" stroke-width="4px" d=" M-426.3619689941406,-107.34811401367188 C-426.3619689941406,-107.34811401367188 -443.40185546875,-32.58932113647461 -443.40185546875,-32.58932113647461 C-443.40185546875,-32.58932113647461 -503.7611999511719,-6.720544815063477 -503.7611999511719,-6.720544815063477 C-503.7611999511719,-6.720544815063477 -546.8927001953125,-55.73644256591797 -546.8927001953125,-55.73644256591797 C-546.8927001953125,-55.73644256591797 -529.887939453125,-130.4561767578125 -529.887939453125,-130.4561767578125 C-529.887939453125,-130.4561767578125 -469.4117736816406,-156.3530731201172 -469.4117736816406,-156.3530731201172 C-469.4117736816406,-156.3530731201172 -426.3619689941406,-107.34811401367188 -426.3619689941406,-107.34811401367188z"></path></g><g opacity="1" transform="matrix(1,0,0,1,0,0)"><path fill="#FFFFFF" fill-opacity="1" d=" M-488.5671081542969,-108.046875 C-492.7083740234375,-107.96746063232422 -496.7466125488281,-106.74237823486328 -500.23114013671875,-104.50881958007812 C-506.1490478515625,-100.70458984375 -510.5088806152344,-94.91742706298828 -512.5259399414062,-88.19036102294922 C-512.5259399414062,-88.19036102294922 -512.5259399414062,-88.19036102294922 -512.5259399414062,-88.19036102294922 C-514.7232666015625,-81.5187759399414 -514.4580078125,-74.2838363647461 -511.7787170410156,-67.79049682617188 C-509.1565856933594,-61.69023513793945 -504.51702880859375,-57.33210372924805 -498.71746826171875,-55.517330169677734 C-496.75592041015625,-54.90397262573242 -494.71099853515625,-54.60089874267578 -492.6556396484375,-54.61848831176758 C-482.4158935546875,-54.701255798339844 -472.4090576171875,-62.58857345581055 -468.6697998046875,-74.47023010253906 C-466.4725341796875,-81.1418228149414 -466.73773193359375,-88.37576293945312 -469.4169921875,-94.86909484863281 C-472.0391540527344,-100.9693603515625 -476.6787414550781,-105.32843780517578 -482.478271484375,-107.14326477050781 C-484.4488525390625,-107.76054382324219 -486.5047912597656,-108.06456756591797 -488.5700988769531,-108.0468521118164 C-488.5700988769531,-108.0468521118164 -488.5671081542969,-108.046875 -488.5671081542969,-108.046875z"></path><path stroke-linecap="round" stroke-linejoin="round" fill-opacity="0" stroke="#222433" stroke-opacity="1" stroke-width="4px" d=" M-488.5671081542969,-108.046875 C-492.7083740234375,-107.96746063232422 -496.7466125488281,-106.74237823486328 -500.23114013671875,-104.50881958007812 C-506.1490478515625,-100.70458984375 -510.5088806152344,-94.91742706298828 -512.5259399414062,-88.19036102294922 C-512.5259399414062,-88.19036102294922 -512.5259399414062,-88.19036102294922 -512.5259399414062,-88.19036102294922 C-514.7232666015625,-81.5187759399414 -514.4580078125,-74.2838363647461 -511.7787170410156,-67.79049682617188 C-509.1565856933594,-61.69023513793945 -504.51702880859375,-57.33210372924805 -498.71746826171875,-55.517330169677734 C-496.75592041015625,-54.90397262573242 -494.71099853515625,-54.60089874267578 -492.6556396484375,-54.61848831176758 C-482.4158935546875,-54.701255798339844 -472.4090576171875,-62.58857345581055 -468.6697998046875,-74.47023010253906 C-466.4725341796875,-81.1418228149414 -466.73773193359375,-88.37576293945312 -469.4169921875,-94.86909484863281 C-472.0391540527344,-100.9693603515625 -476.6787414550781,-105.32843780517578 -482.478271484375,-107.14326477050781 C-484.4488525390625,-107.76054382324219 -486.5047912597656,-108.06456756591797 -488.5700988769531,-108.0468521118164 C-488.5700988769531,-108.0468521118164 -488.5671081542969,-108.046875 -488.5671081542969,-108.046875z"></path></g></g><g transform="matrix(0.6033177971839905,-0.11826492100954056,0.11826492100954056,0.6033177971839905,371.5332336425781,270.30035400390625)" opacity="1" style="display: block;"><g opacity="1" transform="matrix(1,0,0,1,0,0)"><path fill="#FFFFFF" fill-opacity="1" d=" M-136.693603515625,92.00469970703125 C-136.047607421875,94.0687026977539 -133.99119567871094,96.55580139160156 -130.17250061035156,99.08570098876953 C-115.60169982910156,108.631103515625 -101.28209686279297,86.2676010131836 -103.15070343017578,75.9791030883789 C-89.61920166015625,102.8311996459961 -86.95320129394531,121.18620300292969 -77.73629760742188,118.21070098876953 C-63.018699645996094,113.30789947509766 -83.26399993896484,55.21969985961914 -97.36380004882812,36.80799865722656 C-103.29100036621094,29.1875 -110.40170288085938,20.477500915527344 -116.1530990600586,14.163700103759766 C-116.1530990600586,14.163700103759766 -168.63380432128906,51.21149826049805 -168.63380432128906,51.21149826049805 C-156.69580078125,60.259498596191406 -146.6905975341797,70.81420135498047 -146.6230926513672,77.72940063476562 C-146.6230926513672,77.72940063476562 -165.00559997558594,73.54660034179688 -165.00559997558594,73.54660034179688 C-163.1497039794922,89.66529846191406 -148.37100219726562,94.19920349121094 -136.69070434570312,92.00469970703125 C-129.4904022216797,90.65499877929688 -123.93659973144531,85.2614974975586 -123.90229797363281,79.2488021850586"></path><path stroke-linecap="round" stroke-linejoin="round" fill-opacity="0" stroke="#222433" stroke-opacity="1" stroke-width="4px" d=" M-136.693603515625,92.00469970703125 C-136.047607421875,94.0687026977539 -133.99119567871094,96.55580139160156 -130.17250061035156,99.08570098876953 C-115.60169982910156,108.631103515625 -101.28209686279297,86.2676010131836 -103.15070343017578,75.9791030883789 C-89.61920166015625,102.8311996459961 -86.95320129394531,121.18620300292969 -77.73629760742188,118.21070098876953 C-63.018699645996094,113.30789947509766 -83.26399993896484,55.21969985961914 -97.36380004882812,36.80799865722656 C-103.29100036621094,29.1875 -110.40170288085938,20.477500915527344 -116.1530990600586,14.163700103759766 C-116.1530990600586,14.163700103759766 -168.63380432128906,51.21149826049805 -168.63380432128906,51.21149826049805 C-156.69580078125,60.259498596191406 -146.6905975341797,70.81420135498047 -146.6230926513672,77.72940063476562 C-146.6230926513672,77.72940063476562 -165.00559997558594,73.54660034179688 -165.00559997558594,73.54660034179688 C-163.1497039794922,89.66529846191406 -148.37100219726562,94.19920349121094 -136.69070434570312,92.00469970703125 C-129.4904022216797,90.65499877929688 -123.93659973144531,85.2614974975586 -123.90229797363281,79.2488021850586"></path></g></g><g transform="matrix(0.5980625748634338,-0.1424786001443863,0.1424786001443863,0.5980625748634338,381.1758728027344,269.39581298828125)" opacity="1" style="display: block;"><g opacity="1" transform="matrix(1,0,0,1,0,0)"><path fill="#FFFFFF" fill-opacity="1" d=" M-266.010009765625,-164.6909942626953 C-266.010009765625,-164.6909942626953 -255.22999572753906,-55.10599899291992 -255.1925048828125,-54.0255012512207 C-254.1894989013672,-48.262001037597656 -251.76950073242188,-43.0994987487793 -248.3625030517578,-38.604000091552734 C-248.3625030517578,-38.604000091552734 -178.7635040283203,60.7599983215332 -178.7635040283203,60.7599983215332 C-178.7635040283203,60.7599983215332 -112.05599975585938,21.950000762939453 -112.05599975585938,21.950000762939453 C-112.05599975585938,21.950000762939453 -178.49049377441406,-76.34149932861328 -178.49049377441406,-76.34149932861328 C-178.49049377441406,-76.34149932861328 -188.07699584960938,-170.5175018310547 -188.1999969482422,-172.63900756835938 C-188.38600158691406,-175.85299682617188 -192.77149963378906,-187.82899475097656 -199.10400390625,-192.9340057373047 C-199.10400390625,-192.9340057373047 -234.8159942626953,-210.5659942626953 -234.8159942626953,-210.5659942626953 C-234.8159942626953,-210.5659942626953 -264.7294921875,-189.24049377441406 -266.385498046875,-187.78799438476562 C-268.8284912109375,-185.64549255371094 -312.47149658203125,-136.86300659179688 -312.47149658203125,-136.86300659179688 C-312.47149658203125,-136.86300659179688 -261.5050048828125,-120.58650207519531 -261.5050048828125,-120.58650207519531 C-261.5050048828125,-120.58650207519531 -266.010009765625,-164.6909942626953 -266.010009765625,-164.6909942626953z"></path><path stroke-linecap="round" stroke-linejoin="round" fill-opacity="0" stroke="#222433" stroke-opacity="1" stroke-width="4px" d=" M-266.010009765625,-164.6909942626953 C-266.010009765625,-164.6909942626953 -255.22999572753906,-55.10599899291992 -255.1925048828125,-54.0255012512207 C-254.1894989013672,-48.262001037597656 -251.76950073242188,-43.0994987487793 -248.3625030517578,-38.604000091552734 C-248.3625030517578,-38.604000091552734 -178.7635040283203,60.7599983215332 -178.7635040283203,60.7599983215332 C-178.7635040283203,60.7599983215332 -112.05599975585938,21.950000762939453 -112.05599975585938,21.950000762939453 C-112.05599975585938,21.950000762939453 -178.49049377441406,-76.34149932861328 -178.49049377441406,-76.34149932861328 C-178.49049377441406,-76.34149932861328 -188.07699584960938,-170.5175018310547 -188.1999969482422,-172.63900756835938 C-188.38600158691406,-175.85299682617188 -192.77149963378906,-187.82899475097656 -199.10400390625,-192.9340057373047 C-199.10400390625,-192.9340057373047 -234.8159942626953,-210.5659942626953 -234.8159942626953,-210.5659942626953 C-234.8159942626953,-210.5659942626953 -264.7294921875,-189.24049377441406 -266.385498046875,-187.78799438476562 C-268.8284912109375,-185.64549255371094 -312.47149658203125,-136.86300659179688 -312.47149658203125,-136.86300659179688 C-312.47149658203125,-136.86300659179688 -261.5050048828125,-120.58650207519531 -261.5050048828125,-120.58650207519531 C-261.5050048828125,-120.58650207519531 -266.010009765625,-164.6909942626953 -266.010009765625,-164.6909942626953z"></path></g></g><g transform="matrix(0.5929135084152222,0.16258086264133453,-0.16258086264133453,0.5929135084152222,322.730224609375,335.15216064453125)" opacity="1" style="display: block;"><g opacity="1" transform="matrix(1,0,0,1,0,0)"><path fill="#FFFFFF" fill-opacity="1" d=" M-165.25399780273438,-229.73399353027344 C-167.16799926757812,-214.76800537109375 -179.9290008544922,-203.54800415039062 -195.0570068359375,-203.52999877929688 C-195.12399291992188,-203.52999877929688 -195.18299865722656,-203.53399658203125 -195.2469940185547,-203.53399658203125 C-195.2469940185547,-203.53399658203125 -202.92999267578125,-183.88800048828125 -202.92999267578125,-183.88800048828125 C-206.06500244140625,-175.8730010986328 -215.1199951171875,-171.91000366210938 -223.15699768066406,-175.03700256347656 C-223.15699768066406,-175.03700256347656 -223.15699768066406,-175.03700256347656 -223.15699768066406,-175.03700256347656 C-231.19400024414062,-178.16299438476562 -235.16799926757812,-187.19500732421875 -232.0330047607422,-195.2100067138672 C-232.0330047607422,-195.2100067138672 -232.0330047607422,-195.21099853515625 -232.0330047607422,-195.21099853515625 C-232.0330047607422,-195.21099853515625 -216.7530059814453,-236.58299255371094 -216.7530059814453,-236.58299255371094 C-216.7530059814453,-236.58299255371094 -210.54299926757812,-247.09100341796875 -210.54299926757812,-247.09100341796875 C-210.54299926757812,-247.09100341796875 -167.4290008544922,-258.4330139160156 -167.4290008544922,-258.4330139160156 C-165.48899841308594,-253.83599853515625 -164.7429962158203,-248.82699584960938 -165.25900268554688,-243.86599731445312 C-165.25900268554688,-243.86599731445312 -165.48899841308594,-243.8939971923828 -165.48899841308594,-243.8939971923828 C-165.48899841308594,-243.8939971923828 -159.06700134277344,-232.95199584960938 -159.06700134277344,-232.95199584960938 C-159.06700134277344,-232.95199584960938 -165.25399780273438,-229.73699951171875 -165.25399780273438,-229.73699951171875"></path><path stroke-linecap="round" stroke-linejoin="round" fill-opacity="0" stroke="#222433" stroke-opacity="1" stroke-width="4px" d=" M-165.25399780273438,-229.73399353027344 C-167.16799926757812,-214.76800537109375 -179.9290008544922,-203.54800415039062 -195.0570068359375,-203.52999877929688 C-195.12399291992188,-203.52999877929688 -195.18299865722656,-203.53399658203125 -195.2469940185547,-203.53399658203125 C-195.2469940185547,-203.53399658203125 -202.92999267578125,-183.88800048828125 -202.92999267578125,-183.88800048828125 C-206.06500244140625,-175.8730010986328 -215.1199951171875,-171.91000366210938 -223.15699768066406,-175.03700256347656 C-223.15699768066406,-175.03700256347656 -223.15699768066406,-175.03700256347656 -223.15699768066406,-175.03700256347656 C-231.19400024414062,-178.16299438476562 -235.16799926757812,-187.19500732421875 -232.0330047607422,-195.2100067138672 C-232.0330047607422,-195.2100067138672 -232.0330047607422,-195.21099853515625 -232.0330047607422,-195.21099853515625 C-232.0330047607422,-195.21099853515625 -216.7530059814453,-236.58299255371094 -216.7530059814453,-236.58299255371094 C-216.7530059814453,-236.58299255371094 -210.54299926757812,-247.09100341796875 -210.54299926757812,-247.09100341796875 C-210.54299926757812,-247.09100341796875 -167.4290008544922,-258.4330139160156 -167.4290008544922,-258.4330139160156 C-165.48899841308594,-253.83599853515625 -164.7429962158203,-248.82699584960938 -165.25900268554688,-243.86599731445312 C-165.25900268554688,-243.86599731445312 -165.48899841308594,-243.8939971923828 -165.48899841308594,-243.8939971923828 C-165.48899841308594,-243.8939971923828 -159.06700134277344,-232.95199584960938 -159.06700134277344,-232.95199584960938 C-159.06700134277344,-232.95199584960938 -165.25399780273438,-229.73699951171875 -165.25399780273438,-229.73699951171875"></path></g><g opacity="1" transform="matrix(1,0,0,1,0,0)"><path fill="#90D6E1" fill-opacity="1" d=" M-208.60800170898438,-206.5449981689453 C-205.66000366210938,-204.8350067138672 -199.23300170898438,-203.4199981689453 -195.1649932861328,-203.53799438476562"></path><path stroke-linecap="round" stroke-linejoin="round" fill-opacity="0" stroke="#222433" stroke-opacity="1" stroke-width="4px" d=" M-208.60800170898438,-206.5449981689453 C-205.66000366210938,-204.8350067138672 -199.23300170898438,-203.4199981689453 -195.1649932861328,-203.53799438476562"></path></g></g><g transform="matrix(0.5956606268882751,0.1522083431482315,-0.1522083431482315,0.5956606268882751,326.06573486328125,332.484375)" opacity="1" style="display: block;"><g opacity="1" transform="matrix(1,0,0,1,0,0)"><g opacity="1" transform="matrix(1,0,0,1,0,0)"><path fill="#5A38FD" fill-opacity="1" d=" M-163.29400634765625,-250.9459991455078 C-165.56900024414062,-268.51300048828125 -181.69200134277344,-280.9150085449219 -199.30599975585938,-278.6470031738281 C-206.78500366210938,-277.6839904785156 -213.68600463867188,-274.1300048828125 -218.8040008544922,-268.6059875488281 C-219.50599670410156,-267.8450012207031 -220.16299438476562,-267.052001953125 -220.78500366210938,-266.2309875488281 C-241.24899291992188,-240.61700439453125 -231.19700622558594,-216.41200256347656 -218.14199829101562,-217.9409942626953 C-210.7969970703125,-218.4810028076172 -205.48300170898438,-219.16299438476562 -196.17100524902344,-221.6009979248047 C-188.08999633789062,-224.11599731445312 -180.7779998779297,-228.302001953125 -174.08599853515625,-233.4459991455078 C-168.98599243164062,-237.677001953125 -162.3820037841797,-241.4510040283203 -163.29400634765625,-250.9459991455078z"></path></g><g opacity="1" transform="matrix(1.1193734407424927,-0.17330627143383026,0.17330627143383026,1.1193734407424927,-259.58258056640625,-227.63894653320312)"><path fill="#5A38FD" fill-opacity="1" d=" M0,-47.143001556396484 C26.01822280883789,-47.143001556396484 47.143001556396484,-26.01822280883789 47.143001556396484,0 C47.143001556396484,26.01822280883789 26.01822280883789,47.143001556396484 0,47.143001556396484 C-26.01822280883789,47.143001556396484 -47.143001556396484,26.01822280883789 -47.143001556396484,0 C-47.143001556396484,-26.01822280883789 -26.01822280883789,-47.143001556396484 0,-47.143001556396484z"></path></g><g opacity="1" transform="matrix(1.0743211507797241,-0.3589792251586914,0.3589792251586914,1.0743211507797241,-330.0711669921875,-183.9310302734375)"><path fill="#5A38FD" fill-opacity="1" d=" M0,-47.143001556396484 C26.01822280883789,-47.143001556396484 47.143001556396484,-26.01822280883789 47.143001556396484,0 C47.143001556396484,26.01822280883789 26.01822280883789,47.143001556396484 0,47.143001556396484 C-26.01822280883789,47.143001556396484 -47.143001556396484,26.01822280883789 -47.143001556396484,0 C-47.143001556396484,-26.01822280883789 -26.01822280883789,-47.143001556396484 0,-47.143001556396484z M30.059999465942383,-36.159000396728516 C39.584999084472656,-27.88599967956543 46.86800003051758,-9.534000396728516 42.481998443603516,17.819000244140625"></path><g opacity="1" transform="matrix(1,0,0,1,0,0)"><path stroke-linecap="round" stroke-linejoin="round" fill-opacity="0" stroke="#232534" stroke-opacity="1" stroke-width="4px" d=" M30.059999465942383,-36.159000396728516 C39.584999084472656,-27.88599967956543 46.86800003051758,-9.534000396728516 42.481998443603516,17.819000244140625"></path></g></g></g></g><g transform="matrix(0.5923863053321838,-0.16449128091335297,0.16449128091335297,0.5923863053321838,410.9056396484375,261.51409912109375)" opacity="1" style="display: block;"><g opacity="1" transform="matrix(1,0,0,1,0,0)"><path fill="#222433" fill-opacity="1" d=" M-327.1549987792969,-186.43499755859375 C-328.6839904785156,-186.46800231933594 -330.17498779296875,-186.91400146484375 -331.4700012207031,-187.7239990234375 C-334.0249938964844,-189.09100341796875 -335.718994140625,-191.6490020751953 -335.97698974609375,-194.5290069580078 C-336.9320068359375,-205.36900329589844 -318.7770080566406,-221.1649932861328 -316.7040100097656,-222.92999267578125 C-315.8609924316406,-223.6479949951172 -314.5950012207031,-223.54800415039062 -313.875,-222.70700073242188 C-313.5450134277344,-222.32200622558594 -313.375,-221.82699584960938 -313.3970031738281,-221.3209991455078 C-313.5270080566406,-218.3470001220703 -314.92498779296875,-192.13299560546875 -323.8900146484375,-187.2729949951172 C-324.8900146484375,-186.72500610351562 -326.0140075683594,-186.43699645996094 -327.1549987792969,-186.43499755859375z M-317.7510070800781,-216.55599975585938 C-323.8219909667969,-210.71800231933594 -332.51300048828125,-200.92999267578125 -331.97900390625,-194.87899780273438 C-331.8399963378906,-193.28599548339844 -330.8760070800781,-191.88099670410156 -329.43701171875,-191.1750030517578 C-327.57000732421875,-190.0800018310547 -326.47198486328125,-190.43099975585938 -325.8089904785156,-190.7899932861328 C-321.3160095214844,-193.22500610351562 -318.7030029296875,-206.33200073242188 -317.7510070800781,-216.55599975585938 C-317.7510070800781,-216.55599975585938 -317.7510070800781,-216.55599975585938 -317.7510070800781,-216.55599975585938z"></path></g></g><g transform="matrix(0.49475032091140747,-0.3649672865867615,0.3649672865867615,0.49475032091140747,424.40899658203125,176.78590393066406)" opacity="1" style="display: block;"><g opacity="1" transform="matrix(1,0,0,1,0,0)"><path fill="#222433" fill-opacity="1" d=" M-305.4339904785156,-185.90199279785156 C-307.41900634765625,-185.88900756835938 -309.34100341796875,-186.58700561523438 -310.85198974609375,-187.8699951171875 C-319.218994140625,-194.85299682617188 -317.614990234375,-218.8489990234375 -317.4079895019531,-221.56300354003906 C-317.322998046875,-222.6649932861328 -316.3580017089844,-223.49000549316406 -315.25299072265625,-223.40499877929688 C-314.7460021972656,-223.36599731445312 -314.27398681640625,-223.13699340820312 -313.92999267578125,-222.76400756835938 C-311.9119873046875,-220.5679931640625 -294.3080139160156,-201.02499389648438 -297.20001220703125,-191.26800537109375 C-297.7200012207031,-189.51400756835938 -299.1239929199219,-187.218994140625 -302.8630065917969,-186.24899291992188 C-303.7019958496094,-186.02499389648438 -304.5660095214844,-185.90899658203125 -305.4339904785156,-185.90199279785156z M-313.614990234375,-216.31199645996094 C-313.7550048828125,-207.89300537109375 -312.9460144042969,-194.83700561523438 -308.2720031738281,-190.94000244140625 C-307.0480041503906,-189.91700744628906 -305.37701416015625,-189.60499572753906 -303.864990234375,-190.11900329589844 C-301.77899169921875,-190.66000366210938 -301.2550048828125,-191.67999267578125 -301.0400085449219,-192.3990020751953 C-299.5899963378906,-197.29100036621094 -307.0350036621094,-208.4029998779297 -313.6159973144531,-216.31199645996094 C-313.6159973144531,-216.31199645996094 -313.614990234375,-216.31199645996094 -313.614990234375,-216.31199645996094z"></path></g></g><g transform="matrix(0.5929135084152222,0.16258086264133453,-0.16258086264133453,0.5929135084152222,322.730224609375,335.15216064453125)" opacity="1" style="display: block;"><g opacity="1" transform="matrix(1,0,0,1,-186.70399475097656,-234.11000061035156)"><path fill="#FFFFFF" fill-opacity="1" d=" M-4.7729997634887695,13.855999946594238 C-10.519000053405762,11.87399959564209 -14.652000427246094,6.415999889373779 -14.652000427246094,0 C-14.652000427246094,-8.08643913269043 -8.08643913269043,-14.652000427246094 0,-14.652000427246094 C0,-14.652000427246094 0,-14.652000427246094 0,-14.652000427246094 C8.08643913269043,-14.652000427246094 14.652000427246094,-8.08643913269043 14.652000427246094,0 C14.652000427246094,0.0860000029206276 14.651000022888184,0.1720000058412552 14.649999618530273,0.257999986410141"></path><path stroke-linecap="round" stroke-linejoin="round" fill-opacity="0" stroke="#232434" stroke-opacity="1" stroke-width="4px" d=" M-4.7729997634887695,13.855999946594238 C-10.519000053405762,11.87399959564209 -14.652000427246094,6.415999889373779 -14.652000427246094,0 C-14.652000427246094,-8.08643913269043 -8.08643913269043,-14.652000427246094 0,-14.652000427246094 C0,-14.652000427246094 0,-14.652000427246094 0,-14.652000427246094 C8.08643913269043,-14.652000427246094 14.652000427246094,-8.08643913269043 14.652000427246094,0 C14.652000427246094,0.0860000029206276 14.651000022888184,0.1720000058412552 14.649999618530273,0.257999986410141"></path></g><g opacity="1" transform="matrix(1,0,0,1,0,0)"><path fill="#FFFFFF" fill-opacity="1" d=" M-188.3249969482422,-239.4459991455078 C-188.3249969482422,-239.4459991455078 -181.01400756835938,-231.3090057373047 -181.01400756835938,-231.3090057373047 C-181.01400756835938,-231.3090057373047 -189.91700744628906,-229.5989990234375 -189.91700744628906,-229.5989990234375"></path><path stroke-linecap="round" stroke-linejoin="miter" fill-opacity="0" stroke-miterlimit="4" stroke="#232434" stroke-opacity="1" stroke-width="4px" d=" M-188.3249969482422,-239.4459991455078 C-188.3249969482422,-239.4459991455078 -181.01400756835938,-231.3090057373047 -181.01400756835938,-231.3090057373047 C-181.01400756835938,-231.3090057373047 -189.91700744628906,-229.5989990234375 -189.91700744628906,-229.5989990234375"></path></g></g><g transform="matrix(0.614799976348877,0,0,0.614799976348877,400.8161926269531,277.2154846191406)" opacity="1" style="display: block;"><g opacity="1" transform="matrix(1,0,0,1,0,0)"><g opacity="1" transform="matrix(1,0,0,1,0,0)"><path fill="#222433" fill-opacity="1" d=" M419.5249938964844,315.0010070800781 C418.7550048828125,315.0010070800781 418.05499267578125,314.5480041503906 417.72601318359375,313.8389892578125 C417.72601318359375,313.8389892578125 413.1910095214844,304.06500244140625 413.1910095214844,304.06500244140625 C412.72100830078125,303.0530090332031 413.1449890136719,301.843994140625 414.13800048828125,301.364990234375 C415.1310119628906,300.885986328125 416.3169860839844,301.3179931640625 416.7869873046875,302.3299865722656 C416.7869873046875,302.3299865722656 421.3219909667969,312.1050109863281 421.3219909667969,312.1050109863281 C421.7919921875,313.11700439453125 421.3680114746094,314.3269958496094 420.375,314.8059997558594 C420.1090087890625,314.9339904785156 419.8190002441406,315.0010070800781 419.5249938964844,315.0010070800781z"></path></g><g opacity="1" transform="matrix(1,0,0,1,0,0)"><path fill="#222433" fill-opacity="1" d=" M430.4750061035156,315.0010070800781 C429.37701416015625,315.0010070800781 428.48699951171875,314.0920104980469 428.48699951171875,312.97198486328125 C428.48699951171875,312.6719970703125 428.552001953125,312.3760070800781 428.6780090332031,312.1050109863281 C428.6780090332031,312.1050109863281 433.2130126953125,302.3299865722656 433.2130126953125,302.3299865722656 C433.6830139160156,301.3179931640625 434.8689880371094,300.885986328125 435.86199951171875,301.364990234375 C436.8550109863281,301.843994140625 437.27899169921875,303.0530090332031 436.8089904785156,304.06500244140625 C436.8089904785156,304.06500244140625 436.8089904785156,304.06500244140625 436.8089904785156,304.06500244140625 C436.8089904785156,304.06500244140625 432.27398681640625,313.8389892578125 432.27398681640625,313.8389892578125 C431.94500732421875,314.5480041503906 431.2449951171875,315.0010070800781 430.4750061035156,315.0010070800781z"></path></g><g opacity="1" transform="matrix(1,0,0,1,0,0)"><path fill="#222433" fill-opacity="1" d=" M425,315 C423.9020080566406,315 423.010986328125,314.0920104980469 423.010986328125,312.97198486328125 C423.010986328125,312.97198486328125 423.010986328125,301.02801513671875 423.010986328125,301.02801513671875 C423.010986328125,299.9079895019531 423.9020080566406,299 425,299 C426.0979919433594,299 426.989013671875,299.9079895019531 426.989013671875,301.02801513671875 C426.989013671875,301.02801513671875 426.989013671875,312.97198486328125 426.989013671875,312.97198486328125 C426.989013671875,314.0920104980469 426.0979919433594,315 425,315z"></path></g></g></g><g transform="matrix(0.614799976348877,0,0,0.614799976348877,400.8161315917969,277.2153625488281)" opacity="1" style="display: block;"><g opacity="1" transform="matrix(1,0,0,1,0,0)"><path fill="#222433" fill-opacity="1" d=" M555.916015625,316.17498779296875 C555.916015625,316.17498779296875 -569.916015625,316.17498779296875 -569.916015625,316.17498779296875 C-571.0969848632812,316.17498779296875 -572,315.26300048828125 -572,314.07000732421875 C-572,312.87701416015625 -571.0969848632812,311.9649963378906 -569.916015625,311.9649963378906 C-569.916015625,311.9649963378906 555.916015625,311.9649963378906 555.916015625,311.9649963378906 C557.0969848632812,311.9649963378906 558,312.87701416015625 558,314.07000732421875 C558,315.26300048828125 557.0969848632812,316.17498779296875 555.916015625,316.17498779296875z"></path></g></g></g></svg>